<?xml version="1.0" encoding="utf-8"?>
<!-- Generator: Adobe Illustrator 23.0.6, SVG Export Plug-In . SVG Version: 6.00 Build 0)  -->
<svg version="1.1" id="レイヤー_1" xmlns="http://www.w3.org/2000/svg" xmlns:xlink="http://www.w3.org/1999/xlink" x="0px"
	 y="0px" viewBox="0 0 363 155" style="enable-background:new 0 0 363 155;" xml:space="preserve">
<style type="text/css">
	.st0{fill:#FFFFFF;}
</style>
<g>
	<g>
		<g>
			<path class="st0" d="M22.3,59.3c0,0.1,0,0.1,0,0.2C22.3,59.4,22.3,59.3,22.3,59.3C22.3,59.3,22.3,59.3,22.3,59.3z M36.7,51.3
				c1.1-2.8,0.8-5.4,0.3-8.3c0-0.1-1-2.1-0.3-2.5c-0.4-0.2-0.4-0.4-0.9-0.1c1.4-3.9-0.5-9.4,0.3-12.9c-0.8,0.7-1.9-1.7-0.5-0.7
				c-1.2-5.2-0.9-11.3-2.6-16.1c0.6-2-1.4-3.1-0.4-5.9c-1.2-0.3-1.4-1.4-3.2-1.4c-3.5,5.3-5.8,13.1-8.7,19.4
				c-1.7,3.8-3.1,6.1-3.5,9.3c0.1-0.4-0.7,1-0.8,1.3c0-0.2-0.2-0.6-0.3-0.5c-0.5,1.4-1.2,3.5-1.6,4.4c-1.8,3.9-4.5,11.7-5.4,11.5
				c-0.4,1.5-0.5,4.1-1,5.1c0.1-0.2-0.2-0.7-0.2-0.6C7.2,55.7,7,58,6.2,59.8c-1,2.2-3.3,3.9-2.6,7.6c-1,0.4-1.9,1.8-1.4,3.2
				c-0.9,0.5-2.1,0.6-2.2,2.1c2.3,2.2,5.3,0.9,8.1-0.7c2.9,1.1,6.3-3.6,9.9-2.6c-1.1,2.1-2.2,5.8,0.7,8.1c3.4-0.1,2.7-4.6,1.9-6.8
				c0.5-0.2,1-0.3,1.1-1.1c-0.8,0.1-0.3-2.5,0.1-0.9l0.3-1.8c4.3-2.4,16.4-2.5,14.8-10.5C37.5,54.5,37.3,53,36.7,51.3z M33.4,52.7
				c0.1,2.3-0.2,5.5-1.4,7.5c-2.5,1-4.6,1.7-7,2.4c-0.8,0.2-1.7,0.5-2.7,0.8c0-0.2,0-0.4,0-0.6c0-0.9,0.1-1.8,0.1-2.6
				c0-0.2,0-0.4,0-0.6c0,0.2,0,0.4,0,0.6c0-0.3,0-0.5-0.1-0.8c0-0.1,0-0.1,0-0.2c0-0.2-0.1-0.5-0.2-0.7c-0.6-0.2-1-0.3-1.4-0.4
				c0.4,0.1,0.8,0.2,1.4,0.4c-0.8-0.3-1.3-0.4-1.9-0.4c-0.1,0-0.1,0-0.2,0c-0.1,0-0.2,0-0.4,0.1c-0.3,0.1-0.6,0.2-1,0.4
				c-0.2,2.3,0.3,4.9-0.4,6.7c-4,1-7.2,3-11.3,3.9c0.6-2,0.6-5.5,0.8-5.7c-0.4-0.2,0.1-0.5,0.4-0.6c0.1-0.1,0.7-1,0.2-1.5
				c1.7-0.9,3.2-5.5,3.3-7.8c1.7-3.2,2.9-6.7,3.9-9.6c0.2-0.2,0.5-0.5,0.7-0.7c0.8-0.8,1.6-1.9,2-3.2c0.1-0.2-0.4-0.5-0.5-0.7
				c0,0,0,0,0,0c0.2-1,1.2-1.8,1.9-4.6c1.2-4.5,4.8-10.2,5.2-12.5c0.1-0.4-1.2-0.9,0.1-0.9l-0.1,0.6c0.6-1,1.2-2,1.7-3.1
				c-0.2,0.5-0.5,1-0.7,1.4c0.3-0.6,0.6-1.2,0.9-1.9c-0.1,0.1-0.1,0.2-0.2,0.3c0.2-0.5,0.5-1,0.7-1.5c-0.1,0.3-0.3,0.6-0.4,0.9
				c0.9-2,1.7-4.1,2.5-6.3c2.7,10.5,2.8,25.7,4.4,35.7c-0.5,1.2-0.3,1.2-0.7,2.7C33.2,50.7,33.3,51.6,33.4,52.7z M19.6,58.1
				C19.6,58.1,19.7,58.1,19.6,58.1L19.6,58.1C19.7,58.1,19.6,58.1,19.6,58.1z M20.1,58.1C20.1,58.1,20.1,58.1,20.1,58.1
				c0.1,0,0.1,0,0.2,0c0,0,0,0,0,0C20.2,58,20.1,58.1,20.1,58.1z M22.3,58.9c0,0.1,0,0.1,0,0.2c0,0,0,0,0,0
				C22.3,59.1,22.3,59,22.3,58.9z M19.7,58.1c0.1,0,0.3-0.1,0.4-0.1C19.9,58.1,19.8,58.1,19.7,58.1z M20.2,58c0.2,0,0.3,0,0.5,0
				C20.6,58,20.4,58,20.2,58z M22.3,59.1c0,0.1,0,0.1,0,0.2C22.3,59.2,22.3,59.2,22.3,59.1z M22.3,62.7c0-0.9,0.1-1.8,0.1-2.6
				C22.4,61,22.3,61.9,22.3,62.7z M26.7,18.8C26.7,18.7,26.7,18.7,26.7,18.8C26.7,18.7,26.7,18.7,26.7,18.8z"/>
		</g>
	</g>
	<g>
		<path class="st0" d="M216,24.2c-0.3-1.2,0.2-3,0.7-4.8c-0.8-0.5-1-1.5-2-1.8C213.2,20.1,211.8,26.3,216,24.2z M202.3,27
			c2.3-2.4,2-5.3,1.3-7.3c-0.8-2.5-0.3-6,1.9-9.1c-0.6-0.4-1-1-1.9-1.1c-2.1,2-3.4,4.5-3.3,7.8c0,1.2,0.9,2,1.1,2.9
			c0.3,1.9-0.3,3.7-1.1,5c-0.8,0-1.7,0-1.8,1C198.7,27.7,201.4,27.2,202.3,27z M215.8,15.4c0.6-0.5,1-1.3,1.5-1.9
			c-0.6-0.6-0.9-1.4-2.3-1.4C214.1,13.3,214.2,16,215.8,15.4z M189,26.4c-0.3-1.2-0.8-2.1-2.6-2.1c-0.3-0.7-0.7-1.4-0.4-2.6
			c1-0.4,2.6,0.2,3.9,0.2c0.8-0.8,1.7-1.3,1.9-2.8c-1.2-1.3-1.2-3.1-3-3.6C181.9,13.8,180.9,28.7,189,26.4z M188.5,17.8
			c0.2,0.4,0.7,0.6,0.4,1.4c-0.5,0.5-1.3,0.6-2.4,0.4C187,18.8,187.4,17.8,188.5,17.8z M355.2,50c-3.3,0.5-7.2,0.2-10.4,0.3
			c-2.9,0.1-5.3-1-7.2,0.8c0.2,0,0.3,0.1,0.2,0.3c0.5,2.9,8.3,2.7,11.7,2.7c-2.1,12.4-3.9,25.6-5.8,39.6c-1,7-0.9,14-2,20.7
			c-0.4,2.6-1.5,5.2-1.7,7.8c-0.7,7.1-0.8,14-1.7,20.8c-0.6,4.5-1.4,5.6-1.5,10.2c0,1.8,3.2,2.6,3.5,1c0.9-4.6,0.9-4.6,1.6-8.6
			c0.3-1.4-0.2-3-0.1-4.6c0.2-2.5,1.1-5.1,1.4-7.6c0.3-2.8,0-5.7,0.4-8.6c0.6-4.5,1.4-9.1,1.9-13.7c0.6-4.9,0.8-10,1.5-14.9
			c0.5-3.7,1.8-7.4,2.4-11.1c1.5-10.3,1.8-22.1,4.4-31.8c3.2-0.4,8,1.4,9.2-1.5C364,48.9,358.2,49.5,355.2,50z M241.8,16.9
			c-0.2,1.3,0.5,1.8,0.1,3.3c0.6,0.7,2.2,0.7,2.7,0.5c0-1.6-0.3-2.5-0.3-4.4c1-0.1,2.2,0.1,3-0.1c1.2,1.6,1.9,3.7,2.4,5.8
			c1.1,0.3,1.5-0.2,2.5,0c-0.7-4.4-2.7-7.7-8.1-7.6c0-0.7,0.6-0.8,0.5-1.6c-0.8-0.3-1.3-0.9-2.4-1c-0.6,1.2-0.7,1.8-0.8,3.2
			c-0.9-0.2-1.1,0.4-1.3,1C240.6,16.6,241.1,16.2,241.8,16.9z M230.1,20.5c0.1,2.5-1.3,5.2-2.2,7.2c0.7,0.8,1.4,0.7,2.6,0.7
			c2.1-3.4,4.1-11.9,1.6-14.9c-3.5-4.2-9.4,1.2-8.2,6.8C225.5,21.5,229.1,20.9,230.1,20.5z M229.1,14.3c0.3,2.1-0.7,4.9-2.7,4.8
			C226.3,16.7,227.4,15,229.1,14.3z M199.9,53.6c1.1-1.1,1.6-2.9-1.3-2.9c-4.8,0-12.2-0.9-16.4-0.3c-1.4,0.2-3.7,0.3-4.1,2
			c0.3,3.2,7.3,1.4,9.6,2.3c-2.3,9.2-2.6,20-4,30.2c-1.4,10.8-4.3,22-5.9,33.9c-1.6,11.2-4.1,22.8-4.9,33.4
			c-0.4,4.7,3.1,3.3,3.4,1.6c2.4-14.5,4.8-31.1,6.7-46.1c0.6-4.5,2.2-9,2.8-13.3c0.1-1.1-0.4-4,0.6-3c1.6-10.2,3.1-25.9,5.3-37.5
			C195.1,53.4,198.5,55,199.9,53.6z M131.6,49.6c-2,1.8-1.3,3.9-1.5,6.1c-2.3,23-7.4,46.6-9.1,66.6c-0.1,1.2,0.5,0.9,0.8,1
			c-3.2,10.6-2.2,21.4-6.8,31.1c4.7,2.2,10.3,0,15.2-0.1c-0.2-1.2-0.6-2.2-1.4-2.9c-4.1,0.4-5.9,1.1-8.9-0.2
			c4.1-14.5,4.4-25.9,6.8-42.4c2.3-16,5.5-34.2,7.2-51.6c0.2-2-0.2-2.6-0.4-3.1c0.6-0.9,1-2.2,0.9-3
			C133.3,50.7,133.2,49.6,131.6,49.6z M283.3,50.4c-4,0.2-7.5,1.5-9.8-0.1c-1.4,1.4-1.5,3.1-0.9,4.8c-3.8,23.2-10,49.6-12.3,71.4
			c-0.9,8.4-3,16-3.9,26.1c0.8,0.4,0.9,1.4,1.5,2c7.2,0.5,10.1,1.1,17.2,0.3c0.5-1.9-1.1-2.3-1.5-3.5c-4.4,1-8.8,0.1-13.9,0.1
			c1.6-15.5,5.4-33.7,6.9-48.9c4.4-1.3,16.8-1.6,12.2-1.5c2.2-0.1,3.9-3.2-1.1-3.5c-5.2-0.3-5.7,0.5-10,0.8
			c1.8-13.6,5.9-27.9,8.2-44.1c3.5-1.3,10.5,0.6,11.6-1.2C289,50.4,285.7,50.3,283.3,50.4z M161.4,50.9c-3.4,0.9-5.9,5.1-7.2,8.7
			c-2.7,7.4-3.7,17.1-6.1,27c-4.3,17.6-5.6,34.3-6.4,46.6c-0.3,5.3,0.3,10.7,1.1,14.6c0.2,1.1-0.1,1.6,0.2,2.5
			c1.1,3.4,3.7,4.6,6.8,3.8c4.5-5,5.9-13,7.4-21.3c1.4-8.1,3.5-16.7,4.8-24.7c0.9-5.8,1.6-13.8,2-16.4c0.7-5.3,1.1-9.9,1.9-16.1
			C167.2,65.1,169.6,54.7,161.4,50.9z M161.1,80c-2.4,19.1-3.8,34.9-8.9,56.8c-1.2,5-1.2,11.5-5.9,14.1c-0.6-3.2-0.9-6.4-1-9
			c-0.3,0.6-0.4-0.4,0-0.3c-0.5-7.8,0.6-16,2-24.4c0.4-2.2-0.1-4.5,0.1-6.7c0.7-6,2.3-13.2,3.8-20.2c1-5,2-10.2,3-15
			c1.6-8,4-16.1,7.7-21.3c-0.7,1.4,0.9,2.5,1.2,3.8C164.4,63.6,162.1,72.2,161.1,80z M249.9,50.4c-5.1,6-7,19.3-9.9,27.6
			c-2.6,7.3-4,14.5-6.6,21.4c-2.6,7-5.6,13.8-7.6,21c-0.6-0.9-0.3,0.4-0.9,0.5c0,3.1-1.9,4.1-1.5,6c-0.1,0-0.2-0.1-0.3-0.1
			l-2.1-20.4c0-3-0.1-5.8-0.8-7.9l-2.8-27v0c-0.2-2.9-0.4-6-0.7-8.4c-0.7-6.3-1.8-13.4-4.8-12.9c-4.1,22.3-7.5,51-11,74.6
			c-1.7,11-2.6,17.8-4.6,28.7c0.7,0.8,1.6,2,2.8,1.6c0.3-4.3,1.1-6.2,1.6-10.3c0.9-7.9,2.5-15.7,3.6-25.1c1.3-11,4.3-23.6,5.6-33.8
			c0.9-7.5,2-17.9,3.4-25.3c1.1,6.3,1.3,14.7,1.9,21.6l0,0c0,0,0,0,0,0c0.1,1.4,0.3,2.8,0.4,4.1c0,0.2,0.1,0.4,0.1,0.6
			c0.7,6,1.9,17,3.1,28.2c0,0.7,0.1,1.4,0.2,2.1c0,0.1,0.1,0.2,0.1,0.4c0.6,5.2,1.2,10.4,1.7,15.1c-1.6,2.5-1.8,4.4-2.6,6.3
			c-1.6,3.9-8.6,15.3-3.3,16.2c0.9-4.7,4.9-11,6.8-15.4c0.2,1.9,0.4,3.6,0.6,5.1c0.1,1.9,0.3,3.9,0.7,5.6c0,0,0,0,0,0c0,0,0,0,0,0
			c0.5,2.5,1.5,4.4,3.5,4.6c0.4-1.1-0.4-3.7-0.9-5.7l-0.7-6.6c0-0.8,0-1.5-0.1-2.2c-0.1-0.7-0.2-1.4-0.4-2.1l-0.5-5.3
			c0.4-1.1,1.8-2.8,2.4-4.4c0.9-2.7,0.4-1.7,1.1-3.6c2.4-5.9,4-10.4,5.9-15.9c0.4-1.3-0.6,0.2-0.4-0.7c0.5-0.9,0.7,0.3,1-0.8
			c0.7-3.2,2.1-5.8,3-8c1.7-4.2,2.2-7.9,2.7-9.8c0.2-0.8,0.3-0.3,0.5-0.9c0.4-1.2,0.6-2.5,0.8-5.7c-0.1,0.7,0.7,1,0.9-0.2
			c1.8-6.1,4.3-16,6-21c0.4,6.1-2.3,16.4-1.3,20.3c-3.6,21.7-6.3,47.8-9.5,70.9c0.4,1.4,2.3,1.9,3,1.6c0.1-3.6,2.1-8.3,0.7-11
			c0.4,0,0.9,0.2,0.9-0.5c0.5-4.5,0.4-11.8,1.9-14.6c0.2-0.9-0.9,0.7-0.8-0.4c0.3-0.8,0.3,0.1,1-0.8c0.3-7.3,2.7-16.1,3.6-25.1
			c1.7-16.7,3.4-34.4,5.1-50.6C251.2,51.7,251.4,50.3,249.9,50.4z M109.3,49.5c-2.5,11.1-5,25.1-7,39.7c-2.6,19-8.6,47.8-11.4,65.7
			c2,1.9,8.9-0.1,11.2-1c0.5,0.8,3.5,0.9,4-0.6c-0.1-4.1-7.8-0.1-10.8-1.2c0-2.3,1.9-6.9,0.8-9.3c2-4,2.2-9.7,3.4-15.6
			c0.5-2.7,1.2-5.5,1.4-8.1c0.4-3.2,2-6.8,1-9c0.7,0.1,1.1-0.2,1.1-1c1.2-12.2,5.9-32.1,7.7-48.7C111,56.3,114.4,48.7,109.3,49.5z
			 M82.5,61.1c-0.7,0.1-0.8-1-1,0.2c-0.2,2.6-2.3,7.2-1.9,9.4c-0.4-0.1-0.3-1.3-0.6-0.1c-1,3.4-3.9,8.2-3.2,10.4
			c-5.3,19.7-14.6,43-18.7,63.7c-0.4,2.2-2.3,6.6-2.5,10.2c0.9,0.5,1.8,1.7,3.3,0.8c-0.2-0.5,2-5.7,1-7.2c0.5,0,1-0.6,1-1.2
			c2.6-15.5,8.6-26.2,11.4-40.4c2.9-0.7,6.6-2,9.7-1.1c-2,15.5-1.8,31.7-4.3,48.2c1.3,0.5,2.2,1.4,3.8,1c0.1-4,1.2-6.8,1.3-10.3
			c0.1-2.6-0.1-5.2-0.1-7.7c0-3.1,1.3-6.8,0.2-9.5c1.5-5.4,2.5-15.6,2.9-22.5c-0.4-0.1-1.1,0-1.1-0.4c0.5,0,1.1,0.2,1.3-0.2
			c0.2-6.8,1.3-14.5,2.2-20.4c0.2-1.1-1.1,0.5-0.8-0.4c1.7-1.7,0.7-4.2,0.9-6.4c0.2-4,1.1-9.9,1.5-13.8c0.7-5.8,0.4-9.4,0.8-14.2
			c-0.7-0.6-1.4-1.2-2.5-1.5C84.4,53,82.4,55.5,82.5,61.1z M84.2,74.4c-0.7,8.9-1.8,18.6-3.1,28.6c-1.8,0.1-5.4,0.2-8,0.4
			c3.5-9.8,7.2-26.4,10.7-34.9C84.8,69,84.3,72.3,84.2,74.4z M320.6,51.8c-1.8,9.7-3.3,16.7-3.7,25.7c-0.2,4.3,0.1,8.1-0.4,12.3
			c-0.6,4.4-1.1,9.1-1.3,13.3c-0.3,6.4-1.6,24.5-0.6,30.8c-4.2-25.8-6.4-48.6-10.1-66.1c-0.6-2.6-1.1-5.6-1.6-8.5
			c-0.4-2.3,0.5-9.6-3.4-9l-1.3,0.6c0.5,1.7,1,6.3,0.9,8.6c-0.4,4.9-1.1,10-1.6,15.2c-0.4,4.8-1.5,9.7-2.1,14.6
			c-2.1,19.1-3.9,36.1-5.1,55.8c-0.2,3.8-2.9,9.8,0.3,9.8c3.5,0,2.6-5.5,2.6-8.3c0-2,0.1-4.8,0.2-7c0.3-3.9,0.3-6.6,0.9-11.3
			c0.4-3.1,0-6,0.4-8.9c1-7.7,1.8-13.4,2.5-18.5c0.2-1.2,0.2-2.2,0.3-3.4c0.8-7.3,2-13.6,2.8-20c0.5-3.8-0.5-7.6,1.2-11.3
			c2.2,7.4,1.5,14.8,3.3,21.9c1.6,6.1,2.5,17.4,3.4,24.6c1.4,11.1,2.7,17.1,3.7,28.4c0.2,2.9-1.1,15,3.5,13.8
			c1.6-0.4,1-19.8,2.5-27.8c-1.3-8.6,1-17.6,0.9-27.3c0-3.5,1.2-8.1,1.5-11.8c0.3-4.1,0-8.3,0.4-12.3c0.9-7.9,2.7-15.3,2.9-23
			C323.6,49,321.9,51.1,320.6,51.8z M174.6,24.2c0.8-0.2,1.1,0.5,2.3,0.2c-1.3-5.4,1.6-10.3,2.4-16.9c0.3-2.3,0.5-4.4,1.1-6.1
			c-0.7-0.5-0.9-1.3-2.1-1.4c-2.5,6.1-1.8,13.4-4.4,17.4c-1-1-2.6-0.6-4.6-1.2c-3.1,1.1-6.5,5.6-5,9.4
			C167.6,28.4,172.5,27.6,174.6,24.2z M166.4,24.9c0.4-4.8,4.4-8.3,7.3-5.5C172.6,23.1,170,26.5,166.4,24.9z"/>
	</g>
</g>
</svg>
