<?xml version="1.0" encoding="utf-8"?>
<!-- Generator: Adobe Illustrator 23.0.6, SVG Export Plug-In . SVG Version: 6.00 Build 0)  -->
<svg version="1.1" id="レイヤー_1" xmlns="http://www.w3.org/2000/svg" xmlns:xlink="http://www.w3.org/1999/xlink" x="0px"
	 y="0px" viewBox="0 0 426 203" style="enable-background:new 0 0 426 203;" xml:space="preserve">
<style type="text/css">
	.st0{fill:#004B73;}
</style>
<path class="st0" d="M183.3,160.8c0.1-0.7,0.2-1,0.3-1.3c0.1-1.5,0.1-2.9,0.2-4.4c0-1.2,0-2.3,0.1-3.5c0.3-3.1,0.3-6.3,0.4-9.4
	c0.2-11.7,0.2-23.3,0-35c0-2.2-0.1-4.4-0.1-6.6c0-5.7-0.1-11.3-0.4-17c-0.1-3-0.1-6.1-0.2-9.1c-0.1-4.1-0.2-8.2-0.4-12.3
	c-0.1-1.5-0.1-2.9-0.1-4.4c0-7-0.1-14.1,0-21.1c0-2.9,0.2-5.9,0.3-8.8c0.1-4.1,0.3-8.2,0.4-12.3c0-2.3,0.3-4.6,0.5-6.9
	c0.1-0.6,0.3-1.2,0.6-1.8c0.7-1.4,2.1-2.1,3.7-1.8c1.3,0.3,2.5,1.5,2.6,2.8c0.1,0.7,0.1,1.5,0.1,2.2c-0.1,3.1-0.2,6.3-0.2,9.4
	c-0.1,2.8-0.1,5.7-0.1,8.5c0,7.6,0,15.1,0,22.7c0,2.5,0.1,5,0.2,7.6c0.1,3,0.2,6.1,0.3,9.1c0,1.5,0.1,2.9,0.1,4.4
	c0.4,7.9,0.5,15.7,0.6,23.6c0,4.7,0.1,9.4,0.2,14.2c0.2,10.2,0.2,20.4-0.1,30.6c-0.2,6.6-0.4,13.2-0.7,19.8
	c-0.1,1.9-0.1,3.8-0.2,5.7c0,1.2-0.1,2.3-0.2,3.5c-0.6,8.2-0.6,16.4-0.4,24.6c0.2,0.5,0.4,1.1,0.6,1.7c0.4,1.3,0.2,2.5-0.5,3.6
	c-0.4,0.7-1,1.4-1.6,1.9c-1.3,1-3,1.1-4.4,0.3c-0.6-0.4-1.1-1-1.4-1.6c-0.4-0.8-0.6-1.6-0.7-2.4c-0.3-1.9-0.6-3.7-1-5.6
	c-0.6-2.8-1.2-5.5-1.9-8.3c-1.1-4.3-2-8.6-2.7-12.9c-1.3-7.3-2.6-14.7-3.9-22c-0.6-3.5-1.4-7-2-10.5c-1.2-6.5-2.4-13-3.6-19.5
	c-1-5.7-2-11.4-3-17c-1.1-6.1-2.1-12.2-3.5-18.3c-1.4-6.6-2.9-13.1-4.4-19.7c-1-4.3-2-8.6-3-12.9c-0.1-0.6-0.4-1.2-0.5-1.8
	c-0.1-0.2-0.2-0.4-0.4-0.4c-0.1,0-0.2,0.3-0.2,0.5c-0.1,0.8-0.1,1.7-0.1,2.5c-0.1,3.9-0.1,7.8-0.2,11.7c-0.1,3.7-0.2,7.3-0.3,11
	c-0.1,2.1-0.3,4.2-0.3,6.3c-0.2,3.7-0.3,7.3-0.4,11c-0.3,8.9-0.3,17.8-0.3,26.8c0,6.5,0,13-0.1,19.5c0,4.1,0.1,8.2,0.2,12.3
	c0.2,4.5,0.2,9,0.4,13.5c0.1,4.2,0.2,8.4,0.3,12.6c0,2,0,4-0.1,6c0,2.8-0.1,5.7-0.1,8.5c0,0.8,0,1.7-0.1,2.5c-0.1,0.8-0.3,1.4-0.8,2
	c-1,1.3-2.3,1.8-3.9,1.5c-1.4-0.3-2.7-1.6-2.9-3c-0.1-0.8-0.1-1.7-0.1-2.5c0-3.5,0.1-6.9,0.1-10.4c0-6.5,0-13-0.3-19.5
	c-0.2-3.4-0.2-6.7-0.3-10.1c-0.1-4.4-0.2-8.8-0.2-13.2c0-13.2,0-26.5,0.1-39.7c0-4.5,0.2-9,0.4-13.5c0.5-9,0.9-18,1-27.1
	c0-7.8,0.2-15.5,0.4-23.3c0.1-3.9,0.3-7.8,0.5-11.6c0.2-3.9,0.3-7.8,0.5-11.6c0-0.8,0.1-1.7,0.3-2.5c0.2-0.8,0.6-1.6,1.2-2.2
	c1-1,2.1-1.3,3.5-0.9c1.3,0.4,2.3,1.6,2.4,3c0,0.5,0,1.1,0,1.6c-0.1,1.4,0.1,2.7,0.3,4.1c0.6,3,1.2,6,1.8,9c1.8,8.6,3.9,17.2,6,25.8
	c1.1,4.4,2.1,8.8,3.1,13.2c1.2,5.3,2.4,10.6,3.6,16c1.3,5.9,2.5,11.9,3.5,17.9c1.3,7.1,2.5,14.3,3.8,21.4c1.4,7.8,2.9,15.7,4.4,23.5
	c1.1,5.7,2.2,11.3,3.1,17C182.5,158.7,182.7,159.5,183.3,160.8z"/>
<path class="st0" d="M287.6,141.2c-2.9,0-5.8,0.2-8.7,0.6c-2.9,0.4-5.8,0.9-8.8,1c-0.6,0-1.3,0.1-1.9,0.3c-1.4,0.4-2.8,0.8-4.1,1.1
	c-0.5,0.3-0.7,0.7-0.8,1.1c-0.1,0.6-0.2,1.2-0.3,1.9c-0.3,3.2-0.5,6.5-0.8,9.7c-0.4,4.1-0.7,8.2-0.9,12.2c-0.1,1.2-0.1,2.3-0.2,3.5
	c-0.1,1.7-0.2,3.4-0.3,5c-0.1,1.3-0.1,2.5-0.2,3.8c-0.1,1.1,0,2.1,0.1,3.1c0.4,2,0.4,4,0.4,6c0,1.7,0,3.4,0,5c0,1-0.2,1.9-0.6,2.8
	c-0.6,1.4-1.7,2.1-3.2,2.3c-1.6,0.1-3.3-1.3-3.6-2.9c-0.1-0.4-0.1-0.8-0.1-1.3c0-0.9,0.1-1.9,0.2-2.8c0.1-1.2,0.2-2.3,0-3.6
	c-0.2-0.4-0.5-1-0.8-1.5c-0.4-0.9-0.7-1.8-0.6-2.7c0-0.6,0.1-1.3,0.1-1.9c0.3-3.7,0.5-7.3,0.8-11c0.1-1.4,0.1-2.7,0.2-4.1
	c0.2-4.3,0.6-8.6,1-12.9c0.1-0.5,0.1-1,0.1-1.6c0.5-6,1.1-11.9,1.8-17.9c0.5-4.5,1-9,1.5-13.5c0.9-7.3,1.8-14.6,3-21.8
	c1.4-8.9,3-17.8,4.7-26.7c1-5.1,2-10.1,3.1-15.1c1.2-5.7,2.4-11.3,3.6-16.9c1.2-5.5,2.6-11,4.1-16.5c1-3.8,2-7.5,3-11.3
	c0.7-2.5,1.6-5,2.6-7.4c0.2-0.6,0.5-1.1,0.9-1.7c0.6-0.8,1.3-1.3,2.3-1.5c0.9-0.1,1.7,0,2.4,0.6c0.7,0.5,1.3,1.1,1.8,1.7
	c0.7,0.7,0.9,1.6,0.9,2.6c0,0.4-0.1,0.8-0.2,1.2c-0.4,1.4-0.5,2.9-0.6,4.4c-0.3,6.4-0.5,12.8-0.4,19.2c0,3.7,0,7.3,0,11
	c0,2.5,0.1,5,0.2,7.6c0.1,3.3,0.3,6.5,0.5,9.8c0.4,6.2,0.8,12.4,1.5,18.5c0.1,1.1,0.1,2.3,0.2,3.5c0.4,5.7,0.9,11.3,1.4,16.9
	c0.2,2.5,0.5,5,0.7,7.5c0.3,3.3,0.6,6.7,0.9,10c0.3,3.7,0.6,7.3,1,11c0,0.4,0.1,0.8,0.1,1.3c0.4,6.5,1.1,13,1.6,19.5
	c0.3,4,0.7,7.9,1,11.9c0.1,0.6,0.1,1.3,0.1,1.9c0.2,5.8,0.5,11.5,0.8,17.3c0.1,2.3,0.3,4.6,0.5,6.9c0.1,1.3,0.2,2.5,0.3,3.8
	c0.1,0.6,0,1.3-0.1,1.9c-0.3,1.6-1.6,2.8-3.3,2.9c-1.6,0.2-3.2-0.8-3.8-2.3c-0.3-0.7-0.5-1.4-0.6-2.1c-0.3-3.1-0.6-6.3-0.8-9.4
	c-0.1-1.7-0.2-3.4-0.3-5c-0.1-1.7-0.1-3.4-0.2-5c-0.2-3.5-0.3-6.9-0.6-10.4c-0.3-4-0.6-8-0.9-11.9c-0.2-2.8-0.5-5.6-0.8-8.5
	C288.6,141.9,288.4,141.5,287.6,141.2z M281.1,41.2c-0.1,0-0.3,0.1-0.3,0.1c-0.2,0.7-0.5,1.4-0.7,2.1c-1.3,6-2.6,12.1-3.9,18.1
	c-1.2,5.7-2.3,11.5-3.5,17.3c-0.8,4.1-1.5,8.2-2.3,12.4c-0.5,2.8-0.9,5.6-1.4,8.4c-0.9,4.9-1.6,9.7-2.2,14.6
	c-0.8,5.8-1.4,11.7-2,17.5c-0.1,0.7-0.2,1.5-0.2,2.2c0,0.6,0.2,1,0.7,1.3c0.4,0.2,0.8,0.3,1,0.3c1.4-0.1,2.7-0.3,3.9-0.3
	c3-0.1,6.1-0.5,9.1-0.8c0.9-0.1,1.9-0.2,2.8-0.2c1.2,0,2.3,0,3.5-0.1c0.4,0,0.8-0.1,1.2-0.1c0.3,0,0.8-0.5,0.8-0.9
	c0-0.8,0-1.7,0-2.5c-0.3-4.4-0.7-8.8-1.1-13.2c-0.1-1.6-0.2-3.1-0.4-4.7c-0.5-4.2-0.9-8.3-1.2-12.5c-0.3-4-0.7-7.9-1-11.9
	c-0.2-3.8-0.6-7.5-0.9-11.3c-0.5-5.1-0.9-10.2-1.2-15.4c-0.1-1.7-0.1-3.4-0.2-5c-0.2-2.9-0.3-5.9-0.3-8.8c0-1.7,0-3.4,0-5
	C281.3,42.2,281.3,41.7,281.1,41.2z"/>
<path class="st0" d="M107.7,10.9c0.3,0.2,0.5,0.4,0.8,0.5c1.1,0.4,1.9,1.2,2.7,2.1c1.5,1.9,2.7,4,3.7,6.3c1.9,4.4,3.3,8.9,4.4,13.5
	c0.9,3.7,1.7,7.4,2.3,11.2c0.4,2.2,0.7,4.4,1,6.6c0.3,2.3,0.6,4.6,0.9,6.9c0.5,4.4,0.9,8.8,1.1,13.3c0.2,3.1,0.4,6.1,0.7,9.2
	c0.3,3.8,0.5,7.6,0.6,11.4c0,0.5,0,1.1,0,1.6c0.5,9,0.6,17.9,0.4,26.9c0,1.6-0.2,3.2-0.2,4.7c0,0.2-0.1,0.4-0.1,0.6
	c-0.2,5.5-0.9,10.9-1.5,16.4c-0.6,5.2-1.6,10.4-2.8,15.6c-1.2,5.1-2.8,10.2-4.3,15.2c-0.7,2.2-1.4,4.4-2.1,6.6c-1,3-2.3,5.9-3.9,8.7
	c-0.7,1.2-1.5,2.3-2.3,3.4c-1.1,1.4-2.5,2.6-3.9,3.6c-1.6,1.1-3.4,1.7-5.3,1.7c-4-0.1-7.6-1.3-10.7-4c-1.6-1.4-2.9-3-3.9-4.9
	c-0.3-0.6-0.6-1.1-0.9-1.7c-2.8-5.9-5.1-12-6.4-18.5c-1.1-5.1-2-10.2-2.6-15.3c-0.3-2.9-0.8-5.9-1-8.8c-0.4-5.2-0.8-10.3-0.9-15.5
	c-0.1-8.9,0.2-17.7,0.6-26.6c0.2-4.5,0.5-9.1,0.7-13.6c0.2-3.5,0.6-6.9,0.9-10.4c0.1-0.9,0.2-1.9,0.3-2.8c0.5-6.3,1.1-12.6,2-18.9
	c1.2-8.5,3-16.8,5.7-25c1.2-3.5,2.5-6.9,4.1-10.3c1-2.1,2.2-4.1,3.5-6c0.8-1.2,1.7-2.4,2.8-3.4c1.8-1.8,4-3.1,6.5-3.8
	c1.5-0.5,3.1-0.4,4.6,0.2c1,0.4,1.8,1.1,2.2,2.1C107.4,10,107.6,10.5,107.7,10.9z M103.1,14.4c-0.4-0.2-0.8-0.2-1.2,0
	c-1.2,0.5-2.2,1.2-3.1,2.2c-0.7,0.8-1.3,1.7-1.9,2.5c-1.3,2.1-2.5,4.4-3.5,6.7c-1.8,4.4-3.2,8.9-4.5,13.5c-2.1,7.9-3.6,15.9-4.4,24
	c-0.3,3-0.6,6.1-0.9,9.1c-0.3,2.8-0.6,5.7-0.8,8.5c-0.3,4.2-0.8,8.4-0.8,12.6c0,1.8-0.3,3.6-0.3,5.4c-0.2,5.9-0.4,11.8-0.6,17.7
	c0,1.3-0.1,2.5-0.1,3.8c-0.1,4.8,0.1,9.5,0.3,14.3c0.2,4.3,0.6,8.6,1.1,12.9c0.6,5.3,1.4,10.5,2.3,15.7c1.2,6.6,3.3,12.9,6.1,18.9
	c0.5,1,1,2.1,1.7,3c1.6,2.2,3.7,3.4,6.4,3.7c0.6,0.1,1.3,0,1.8-0.4c0.6-0.4,1.2-0.9,1.7-1.4c0.8-0.8,1.5-1.8,2-2.8
	c0.6-1.2,1.3-2.4,1.8-3.7c0.8-1.7,1.5-3.5,2-5.3c1.7-5.6,3.5-11.1,4.9-16.7c1.2-4.8,2.2-9.7,2.9-14.6c0.6-4.5,1.1-9,1.5-13.5
	c0.4-5,0.7-9.9,0.8-14.9c0.2-8.7-0.3-17.3-0.5-26c0-0.5-0.1-1.1-0.1-1.6c-0.4-4.6-0.6-9.3-0.9-13.9c-0.4-5.8-0.9-11.6-1.5-17.4
	c-0.4-3.5-0.9-6.9-1.5-10.4c-0.8-4.6-1.8-9.1-2.9-13.6c-0.6-2.7-1.5-5.3-2.5-7.8c-0.9-2.4-1.9-4.7-3.5-6.7c-0.8-1-1.3-2.1-1.6-3.4
	C103.4,14.7,103.3,14.5,103.1,14.4z"/>
<path class="st0" d="M22,92.8c-0.2,6.3-0.1,13.2,0.2,20c0.1,2.3,0.3,4.6,0.5,7c0.3,3.5,0.7,6.9,0.9,10.4c0.4,5,1.2,9.9,1.6,14.8
	c0.1,1,0.3,2.1,0.5,3.1c0.9,6.1,1.9,12.1,3.2,18.1c1,4.8,2.3,9.4,4.3,13.9c1.2,2.7,2.6,5.3,4.4,7.6c1.5,2,3.4,3.4,5.8,4.3
	c0.9,0.4,1.8,0.4,2.7-0.1c0.3-0.1,0.6-0.3,0.9-0.4c1.3-0.6,2.2-1.6,2.8-2.8c1.2-2.4,2.2-4.8,2.8-7.4c0.5-2,1-4.1,1.4-6.2
	c0.5-2.7,0.9-5.4,1.4-8.1c0.2-0.9,0.4-1.9,0.7-2.8c0.5-1.5,2.1-2.5,3.7-2.4c1.5,0.1,2.8,1.1,3.3,2.5c0.2,0.7,0.3,1.4,0.3,2.2
	c-0.1,0.7-0.2,1.5-0.3,2.2c-0.6,3.7-1.2,7.5-2,11.2c-0.8,3.7-2,7.3-3.5,10.8c-0.3,0.8-0.7,1.5-1.1,2.3c-0.5,0.8-1,1.6-1.6,2.3
	c-2.1,2.4-4.8,3.8-7.8,4.5c-1.9,0.5-3.7,0.3-5.6-0.3c-3-1-5.7-2.6-8-4.9c-0.9-0.9-1.7-1.9-2.4-2.9c-2.1-2.8-3.7-5.9-5.1-9.1
	c-2.4-5.7-4-11.6-5.1-17.6c-1.1-5.6-2-11.2-2.9-16.9c-0.2-1.7-0.5-3.3-0.7-5c-0.5-5-1.2-10.1-1.6-15.1c-0.2-3.4-0.6-6.7-0.9-10.1
	c-0.1-0.7-0.1-1.5-0.2-2.2c-0.3-7.4-0.5-14.8-0.3-22.2c0.1-3.9,0.2-7.8,0.3-11.7c0.1-1.9,0.2-3.8,0.3-5.7c0-0.6,0.1-1.3,0.1-1.9
	c0.1-4.5,0.7-9.1,1-13.6c0.2-2.2,0.4-4.4,0.5-6.6c0.6-7.4,1.3-14.7,2.4-22c0.7-4.3,1.7-8.5,3.1-12.6c1.4-3.9,3.7-7.3,6.5-10.4
	c1.2-1.2,2.5-2.2,4-3.1c2-1.1,4.1-1.7,6.3-1.8c1.6-0.1,3.1,0.3,4.6,0.8c1.7,0.6,3.2,1.5,4.7,2.6c1.3,1.1,2.5,2.2,3.6,3.6
	c2,2.5,3.5,5.2,4.7,8.2c1.2,3.1,1.9,6.3,2.6,9.5c0.8,3.8,1.1,7.7,1.1,11.7c0,0.8-0.1,1.7-0.2,2.5c-0.1,0.7-0.3,1.4-0.7,2.1
	c-0.7,1.1-1.7,1.6-2.9,1.5c-1.3,0-2.2-0.6-2.8-1.7c-0.3-0.5-0.4-1-0.4-1.5c0-0.6,0-1.3,0-1.9c0.1-6.3-1.2-12.4-3.2-18.3
	c-1-2.8-2.5-5.4-4.4-7.6c-0.9-1-1.9-2-3.1-2.7c-2.1-1.2-4.2-1.1-6.3,0.1c-0.8,0.5-1.5,1.1-2.2,1.8c-2.1,2.3-3.7,4.9-4.6,7.8
	c-1.1,3.5-2,7.1-2.6,10.8c-0.9,6.1-1.6,12.1-2,18.3c-0.3,3.7-0.7,7.4-1,11c-0.3,4.6-0.8,9.3-1,13.9C22.2,81.9,22.1,87.1,22,92.8z"/>
<path class="st0" d="M344.5,10.7c0.9,0.4,1.5,1.1,1.9,1.8c0.7,1.2,1.3,2.4,1.7,3.7c1,3,1.6,6.1,2,9.2c0.4,3,0.8,6,0.9,9.1
	c0,0.9,0.2,1.7,0.6,2.4c0.3,0.6,0.7,1.1,1.2,1.5c1.3,1,3,1.1,4.4,0.1c0.2-0.1,0.3-0.3,0.5-0.4c0.3-0.3,0.5-0.7,0.7-0.9
	c0.4-1,0.4-1.9,0.4-2.9c-0.3-6.1-1-12.1-2.6-18c-0.5-2-1.2-4-2.1-5.9c-0.6-1.1-1.2-2.2-2-3.2c-0.9-1.2-2-2.2-3.3-2.9
	c-1.2-0.7-2.5-1.1-3.9-1.3c-2.8-0.3-5.4,0.2-8,1.3c-4.2,1.9-7.2,5-9.1,9.2c-0.9,2-1.6,4.1-2.3,6.2c-2.5,7.3-4.1,14.8-5.2,22.4
	c-0.5,3.2-0.9,6.4-1.2,9.7c-0.4,4.5-0.7,9-0.8,13.5c0,1.7-0.1,3.4-0.2,5c-0.1,2.8-0.2,5.7-0.3,8.5c-0.1,3-0.1,6.1-0.2,9.1
	c-0.1,3.6-0.3,7.1-0.5,10.7c-0.1,2.5-0.3,5-0.4,7.5c-0.2,4.4-0.3,8.8-0.5,13.2c-0.1,2.6,0,5.2,0.3,7.9c0.5,5.4,0.9,10.9,1.5,16.3
	c0.4,4.1,0.6,8.2,1.3,12.2c0.4,2.5,0.6,5,1,7.5c0.5,3.6,0.9,7.3,1.6,10.9c0.8,4.5,1.9,8.8,3.4,13.1c0.9,2.5,2.1,4.8,3.6,7
	c2.4,3.6,6,5.5,10.2,6.3c2.1,0.4,4.2,0.4,6.3,0c3.2-0.6,5.9-2.3,7.9-4.8c1.7-2.2,3.1-4.5,4.3-6.9c1.3-2.7,2.4-5.6,3.4-8.5
	c0.6-1.7,0.9-3.5,1.1-5.2c0.1-1-0.1-1.9-0.6-2.7c-0.9-1.7-3.1-2.5-4.8-1.3c-0.5,0.4-0.9,0.9-1.3,1.6c-0.1,0.7-0.3,1.7-0.5,2.6
	c-0.2,1.1-0.5,2.3-0.9,3.3c-0.8,2-1.7,4.1-2.6,6.1c-0.9,2-2.2,3.8-3.5,5.6c-0.3,0.4-0.7,0.8-1,1.2c-0.6,0.6-1.3,1.1-2.2,1.2
	c-2.1,0.5-4.2,0.4-6.2-0.4c-1.3-0.5-2.4-1.3-3.2-2.5c-1.3-1.8-2.3-3.8-3-5.9c-1.3-4.4-2.5-8.9-3.1-13.5c-0.9-6.4-1.8-12.9-2.6-19.4
	c-0.2-1.5-0.3-2.9-0.4-4.4c-0.5-5.1-0.9-10.3-1.4-15.4c-0.4-3.5-0.6-7.1-0.6-10.7c0-3.6-0.1-7.1,0.2-10.7c0.1-0.8,0-1.7,0.1-2.5
	c0.2-3.9,0.4-7.8,0.6-11.6c0.1-1.4,0.2-2.7,0.2-4.1c0.2-5.7,0.3-11.3,0.5-17c0.1-3.8,0.3-7.6,0.4-11.3c0-0.9,0.1-1.9,0.1-2.8
	c0.2-6.3,1-12.6,1.9-18.8c0.6-4.2,1.5-8.3,2.5-12.3c0.9-3.6,2.1-7,3.3-10.5c0.5-1.3,1-2.5,1.8-3.7c1.4-2.3,3.5-3.6,6-4.3
	C342.6,10.5,343.5,10.5,344.5,10.7z"/>
<path class="st0" d="M225.9,8.8c1.2-0.6,2.1-1.4,3.6-1.5c0.8,0.2,1.8,0.5,2.9,0.9c2.7-0.3,5.5-0.7,8.3-1c3-0.3,6.1-0.6,9.1-0.8
	c1.5-0.1,2.9-0.3,4.3-0.8c0.3-0.1,0.6-0.1,0.9-0.2c1,0,1.9,0.4,2.6,1c0.5,0.5,0.9,1.1,1,1.9c0.2,1.2,0.1,2.3-0.6,3.3
	c-0.5,0.8-1.3,1.4-2.2,1.7c-1,0.3-2,0.5-3.1,0.6c-3.1,0.2-6.3,0.5-9.4,0.8c-1.8,0.2-3.5,0.4-5.3,0.6c-1.3,0.1-2.5,0.2-3.8,0.3
	c-0.4,0-0.8,0.1-1.3,0.8c-0.1,0.2-0.1,0.7-0.1,1.2c0.1,3.7,0.1,7.3,0.2,11c0,3.3,0.1,6.5,0.1,9.8c0,1.4-0.1,2.7-0.2,4.1
	c0,0.7-0.1,1.5-0.1,2.2c-0.3,12.4-0.7,24.8-0.4,37.2c0.2,7.8,0.2,15.5,0.4,23.3c0.1,5.9,0.3,11.8,0.5,17.6c0.1,2.6,0.2,5.2,0.2,7.9
	c0,0.8,0,1.7,0.1,2.5c0.5,8,0.6,15.9,0.6,23.9c0,6.1-0.1,9.3-0.2,15.4c0,5.7,0,11.3,0,17c0,1.8,0,3.6,0.6,5.1c0,1.4-0.3,2.7-0.7,3.9
	c-0.1,0.4-0.3,0.8-0.5,1.1c-0.9,1.3-2.2,1.9-3.8,1.7c-1.4-0.2-2.7-1.4-3-2.8c-0.1-0.4-0.2-0.8-0.2-1.2c0-0.9,0-1.9,0-2.8
	c0-10.8,0-18.8,0.1-29.6c0.1-7.2,0-14.5-0.2-21.7c0-0.3,0-0.6,0-0.9c-0.5-8.1-0.5-16.2-0.9-24.2c-0.2-4.6-0.2-9.2-0.2-13.9
	c-0.1-3.3-0.1-6.5-0.2-9.8c-0.3-9.1-0.4-18.3-0.3-27.4c0-3,0.1-6.1,0.1-9.1c0-0.3,0-0.6,0-0.9c0.2-6.1,0.4-12.2,0.6-18.3
	c0-0.5,0.1-1,0.1-1.6c0.1-5.8,0.2-11.5,0.3-17.3c0-0.8,0-1.7-0.1-2.5c0-0.3-0.5-0.8-0.9-0.8c-0.5,0-1,0-1.6,0c-2,0.2-4,0.2-6,0.1
	c-1.8,0-3.6,0-5.4,0c-0.6,0-1.3,0-1.9,0c-1.9-0.2-3.3-1.8-3-3.7c0.1-1.1,0.7-2,1.7-2.5c0.6-0.4,1.3-0.6,2.1-0.7
	c1.3-0.1,2.5-0.2,3.8-0.3c0.7,0,1.5,0,2.2,0C219.8,9.5,222.8,9.1,225.9,8.8z"/>
<path class="st0" d="M399,14c-0.2,0.2-0.4,0.3-0.6,0.5c0,0.3-0.1,0.8-0.2,1.2c-0.1,2.9-0.3,5.9-0.4,8.8c-0.2,4-0.3,8-0.3,12
	c0,6.2-0.1,12.4-0.3,18.6c-0.4,10.4-0.8,20.8-1.3,31.2c-0.1,2.7-0.2,5.5-0.3,8.2c0,0.8,0,1.7,0,2.5c0.1,8.1,0,16.2,0,24.2
	c0,0.8,0,1.7,0,2.5c0,2.9,0.1,5.9,0.1,8.8c0,5.9,0,11.8,0,17.6c0,4,0.1,8,0.2,12c0,3.5-0.1,6.9-0.1,10.4c-0.1,6.3-0.2,12.6,0,18.9
	c0,0.8,0.1,1.7,0,2.5c0,0.5-0.1,1-0.1,1.6c-0.3,1.6-1.5,2.9-3.1,3.2c-1.6,0.3-2.9-0.3-3.8-1.7c-0.2-0.3-0.3-0.6-0.4-0.8
	c-0.3-1.3-0.4-2.5-0.4-3.8c-0.1-6.2-0.2-12.4,0-18.6c0.1-3.5,0-6.9,0-10.4c0-1.4,0-2.7,0-4.1c0-1.9,0-3.8-0.1-5.7
	c-0.1-2.6,0-5.2,0-7.9c0-6.3-0.1-12.6-0.1-18.9c0-1.7,0-3.4,0-5c0-0.7,0-1.5,0-2.2c-0.2-4,0-8,0-12c0-2.6-0.1-5.2,0-7.9
	c0-4,0.1-8,0.2-12c0.4-10.5,0.8-21,1.2-31.5c0.3-7.2,0.5-14.5,0.7-21.7c0.1-4.9,0.5-9.9,0.8-14.8c0.1-1.4,0.2-2.7,0.3-4.1
	c0-0.3,0-0.6-0.1-0.9c-0.1-0.2-0.2-0.4-0.4-0.4c-0.4-0.1-0.8-0.2-1.2-0.2c-2.2-0.1-4.4-0.1-6.6-0.1c-1.3,0-2.5,0-3.8-0.1
	c-0.7,0-1.4-0.3-2.1-0.6c-1.8-1-2.2-3.7-0.7-5.1c0.6-0.6,1.3-1,2.2-1.1c1.6-0.1,3.1-0.2,4.7-0.2c2.1,0,4.2,0,6.3,0
	c3-0.1,6.1-0.3,9.1-0.5c4.4-0.3,8.8-0.4,13.2-0.1c1,0,1.9,0.2,2.7,0.6c1.1,0.5,1.9,1.3,2.3,2.4c0.8,2-0.6,4.5-2.8,4.7
	c-0.7,0.1-1.5,0.1-2.2,0c-3.6-0.1-7.1-0.2-10.7-0.2C400.3,13.8,399.6,13.9,399,14z"/>
</svg>
