<?xml version="1.0" encoding="utf-8"?>
<!-- Generator: Adobe Illustrator 23.0.6, SVG Export Plug-In . SVG Version: 6.00 Build 0)  -->
<svg version="1.1" id="レイヤー_1" xmlns="http://www.w3.org/2000/svg" xmlns:xlink="http://www.w3.org/1999/xlink" x="0px"
	 y="0px" viewBox="0 0 620.6 203" style="enable-background:new 0 0 620.6 203;" xml:space="preserve">
<style type="text/css">
	.st0{fill:#004B73;}
</style>
<path class="st0" d="M268.1,149.1c0.3-4-2-8.1-2.9-12.1c-1.3-6-2.7-11.2-4.2-17.1c-2.5-9.7-5.1-19.2-7.1-29.1
	c-2.2-11.2-6.5-22.5-7.3-34.3c-0.3-4.8-3-9.9-3.6-14.8c-0.7-6.4-2.9-12.1-3.7-18.4c-0.3-2.8-0.3-4.9-1-7.6c-0.5-1.9-1.8-5-0.5-7.4
	c1-2,4.5-2.7,6.5-2.3c2.9,0.6,3.5,2.1,4.4,4.9c0.6,1.8,1.8,4.2,2,5.9c0.2,2.2,0.4,2.9,0.9,4.9c0.3,1.2,0.7,2.6,1,3.8
	c0.7,2.9,1.1,5.8,1.8,8.8c0.5,2,1.7,5.2,1.9,7.1c0.7,6.2,2.1,11.4,3.7,17.6c0.5,2,0.7,4.1,1.1,6.2c0.1,0.5,0.5,2,0.7,2.7
	c0.6,2.1,1.7,4.9,2,7c1.9,11.6,4.4,22.1,7.4,33c2.4,8.6,4.7,17.7,6.6,26.4c1.3,6.1,3.8,11.8,5.2,18.1c0.7,3.3,2,6,2.7,8.9
	c0.4,1.8,0,5.4,1.4,6.9c1.5-1,2.1-5.2,2.4-6.8c0.4-2.3,0.3-4.7,0.5-7c0.2-3,1.2-4.7,1.7-7.2c0.5-2.5,0.4-5.4,0.6-7.9
	c0.2-2.8,1.2-4.1,1.7-6.4c0.6-2.7,0.1-5.7,0.6-8.4c0.4-2.1,1.2-3,1.6-4.8c0.5-2.3,0.4-4.9,0.5-7.2c0.2-2.6,1.1-3.7,1.6-5.8
	c1.1-4.8,1.2-9.9,2.1-14.4c1.3-6.2-1.9-12.8-3.4-18.2c-2.9-10.7-5.2-20.9-8.7-31.6c-1.8-5.5-2.8-10.8-4.9-16.4
	c-1.3-3.3-2.3-8.6,2-9.6c4.6-1.1,6.5,1.6,8.3,5c2.5,4.9,4.5,10.2,6,15.4c1.2,3.8,1.9,7.2,3.3,10.9c0.5,1.3,0.8,7,2.1,7.7
	c1.9-1.3,2.3-7.8,2.5-9.9c0.1-0.8,0.1-1.6,0.2-2.4c-0.4-1.7,0.1-2.9,1.5-3.7c0.4-1.9,0-4,0.4-5.9c0.7-2.8,2-7,4.8-8.6
	c2.7-1.6,6.5-1,8,2.5c0.6,1.5-0.4,4.9-0.5,6.5c-0.2,2-1.1,3.6-1.4,5.1c-0.4,1.7-0.5,3.8-0.6,5.6c-0.1,1.8-0.3,3.6-0.4,5.3
	c-0.4,0.3-0.8,0.7-1.2,1c-1.1,5-0.2,10.3-1.1,15.3c-0.7,3.8-1.8,6.6-2.2,10.8c-0.6,7.9-0.6,14.2,1.3,21.7c1.5,5.5,3.4,10.5,4.6,16.1
	c2,9.5,6.5,18.8,8,28.6c1.5-0.2,2.2-3.6,2.4-4.7c0.8-3.8,2-7,2.7-10.6c0.2-1,0.6-3.3,0.9-4.5c0.5-1.8,1.2-2.6,1.6-4.2
	c0.8-3.9,0.9-7.1,1.9-10.8c0.5-0.4,0.9-0.8,1.4-1.2c0.1-1.3,0.2-2.7,0.3-4c0.4-1.4,1.3-2.2,1.5-3.2c1-3.7,0.8-6.8,2.1-10.2
	c2.3-6.3,2.4-13.3,4.9-19.5c0.9-2.1,0.8-4,1.8-6c-0.3,0.8,1.6-3.8,1.6-3.6c0.9-3.5,1.9-6.7,2.6-10.2c0.5-2.5,1.5-5.5,2.4-8
	c0.6-1.5,1-2.9,1.6-4.5c0.8-1.9,1.1-3.6,1.6-5.9c0.4-0.4,0.8-0.7,1.3-1.1c0.1-1.1,0.2-2.2,0.2-3.3c0.1-0.2,1.6-2.7,2-3
	c2.9-2.3,7.2-1.6,9.1,1.4c2.2,3.3,0.3,4-0.4,6.9c0,0.4-0.1,0.8-0.1,1.2c0.5,1.6,0,2.8-1.4,3.5c-0.1,1.2-0.2,2.3-0.3,3.5
	c-0.5,0.4-0.9,0.9-1.4,1.3c-0.1,0.8-0.1,1.6-0.2,2.3c0.4,1.7-0.1,2.9-1.5,3.6c-0.3,1.2-0.7,3.2-0.8,4.1c-0.7,3.5-1.9,6.5-2.6,10.1
	c-0.4,1.8-1.1,2.5-1.6,4.4c-0.3,1.2-0.7,3.6-0.9,4.6c-0.7,3.5-1.7,6.9-2.6,10.5c-1.6,6.3-2.8,13.3-5.1,19.3c-1.2,3.1-1.3,5.8-2,9.2
	c-0.3,1.6-1,2.2-1.4,4c-0.1,1.3-0.2,2.7-0.3,4c-0.5,0.4-0.9,0.8-1.4,1.3c-1,3.9-1.2,7-2.1,11c-0.6,2.6-2,6-2.5,8.7
	c-1.3,6.7-3.7,13.4-5.1,20.2c-0.6,3.1-1.5,6.6-2.6,9.6c-1,2.9-0.8,5.9-1.9,8.9c-1.8,4.5-8.9,7.6-12.3,2.3c-2.1-3.2-0.2-4.3,0.5-7
	c0.8-3.1,1.1-6.1,0.6-8.4c-0.4-2.2-2.4-4.7-3.1-7c-0.8-2.6-1.3-5.1-2.1-7.7c-1.5-5-3.5-9.9-4.8-15.3c-0.7-2.9-1.4-5.4-2.1-8.2
	c-0.4-1.6-1.1-6-2.4-7.1c-1,0.5-1.5,6.8-1.8,8.2c-0.8,3.1-1.2,6.6-1.5,10.1c-0.3,4-1.6,6.7-2,11c-0.1,1.9,0,4.1-0.4,6
	c-0.3,1.5-1.3,2.6-1.5,3.7c-0.9,3.9,0,8.1-0.9,12c-0.7,3.3-1.6,5.2-1.9,8.9c-0.4,5.1-0.4,14.1-6.5,15.4c-2.8,0.6-5.2-0.4-6.6-2.5
	c-2-3-0.1-5.4-0.8-8.6c-0.8-4.2-2.1-1.6-5.6-3.1c-2.4-1-3.4-3.7-4.2-6.3c-1.5-4.8-2-9.2-3.4-14.1C271,157,270.5,152.2,268.1,149.1z"
	/>
<path class="st0" d="M31.9,70.2c2.7-1.8,1.8-8.5,2-11.5c0.3-4.4,0.7-8.8,1-13.2c0.4-5.3,0.8-10.6,1.2-15.9c0.3-4.5,1.5-7.8,2-11.9
	c0.8-6.8-2.8-13.9,7.1-15c6.2-0.7,11.7,4.9,16.2,8.5c19.2,15.2,31,37.7,33,60.8c0,0.2,0.8,2.9,0.9,3.5c0-0.1,0.8,3.3,0.8,3.5
	c0.2,2.5-0.7,5-0.5,7.5c0.3,0.3,0.6,0.6,1,0.9c-0.1,1.3-0.2,2.6-0.3,4c-0.7,9.4-1.6,18.8-3.1,27.6c-0.8,4.9-3.3,10.5-5.5,14.8
	c-3.1,5.9-6.9,11.7-11,17.1c-8.2,10.8-19.7,18.6-29.8,27.3c-2.7,2.3-5.8,4.4-8.5,6.8c-1.7,1.5-5.3,4.2-7.1,6.1
	c-3.2,3.4-3.5,5.8-9.1,4.7c-3.4-0.7-5.3-1.3-5.8-4.9c-0.3-2.2,0.8-2.9,1.3-4.4c0.8-2.1,1.3-2.8,1.5-5.7c0.4-5.9,2-10.2,2.5-16.2
	c0.8-10.3,2.6-18.8,3.3-28.9c0.4-5.4,1.8-9.9,2.1-14.8c0.4-5.2-0.1-11.4,1.2-16.5C30.8,93.8,31,81.6,31.9,70.2z M41.8,89.2
	c-0.6,8-0.5,16.9-2.4,24.3c-1.8,7.2-0.6,15.8-2.3,23.3c-0.2,0.9-1.1,2.1-1.4,3.5c-0.4,2-0.3,4.3-0.5,6.4c-0.3,3.7-0.1,7.8-0.8,11.4
	c-1.1,5.4-2.8,11.3-1.8,17.3c11.9-10.8,26.2-19.7,35.5-32.2c9.9-13.2,14.9-28,16.1-44.1c0.1-1.1,0.3-2.4,0.3-3.6
	c-0.1-1.8-0.8-2.4-0.9-3.6c-0.2-2.7,0.8-5.6,0.6-8.3c-0.4-4.6-1.4-9.6-1.8-14.2c-0.5-6.3-3-12.2-4.9-18.7
	C73.9,38,63.3,26.1,53.2,17.4c-0.9-0.8-2.7-3.6-4.1-3c-1.6,0.6-1.2,6.7-1.3,8.5c-0.6,7.7-1.1,15.3-1.7,23c-0.6,7.7-1.1,15.3-1.7,23
	C44.2,73.1,45.3,86.7,41.8,89.2z"/>
<path class="st0" d="M118.8,55.1c2.7-2,1.8-8.7,2-11.8c0.4-5.2,1.7-9.1,2-14.1c0.5-7.3-1.4-17.4,7-19.9c5.7-1.7,13,1.7,18.2,4.6
	c5.9,3.4,11.3,8.1,15.2,13.8c14.7,21.3,3.1,43.6-11.3,62.2c-3,3.9-7.1,7.4-11,10.7c-2.5,2.1-5.1,4.3-7.5,6.6c-3,2.7-2.8,4.7-1.9,8.3
	c2.4,10.1,5.7,20.9,9.7,30.9c3.3,8.5,6.5,17.1,9,25.6c1.3,4.6,2.6,9.6,4.6,13.6c0.3,0.6,2.4,3.7,2.4,4.2c0-1-2.7,4.2-1.7,3.4
	c-2.4,2-6.2,2-8.3,0.7c-5-3-5.2-10.9-6.6-15.3c-1.5-4.6-3-10.6-5-15c-2-4.5-3.5-9.3-5.5-14c-1.5-3.4-2.6-6.6-3.7-10.2
	c-0.9-3-2-8.2-4.3-10.5c-2.5,2.7-0.8,10.2-1.6,13.8c-1,0.3-1.4,1-1.2,2c-0.1,1.1-0.2,2.3-0.2,3.4c-0.2,2.2,0,4.7-0.5,6.8
	c-0.4,0.3-0.8,0.7-1.2,1c-0.1,1.8-0.3,3.5-0.4,5.3c-0.2,2.2-0.1,4.5-0.5,6.7c-0.4,2.2-1.4,3.6-1.6,6.4c-0.2,2.3-0.3,4.5-0.5,6.8
	c-0.3,3.8,0.7,10-4.8,10.2c-1.8,0.1-4.2-0.8-5.4-2.1c-2.3-2.6-1.3-6.3-1.1-9.6c0.4-5.4,0.2-11.3,1.2-16.5c0.5-2.8,1.5-5.7,1.8-9.2
	c0.3-4.8,1.7-8.3,2.1-13.4c0.4-5,1.8-8.5,2.2-13.8c0.3-4.3,0.6-9,1.5-12.9c1-4.3,1.2-9.3,1.6-14.1c0.4-5.6,1.8-9.3,2.2-14.6
	C116.2,74.7,118,65.7,118.8,55.1z M132.9,33.1c-0.4,6-0.9,12.1-1.3,18.1c-0.2,3-0.5,6-0.7,9c-0.2,2-1.2,3.9-1.5,5.2
	c-0.5,2.6-0.4,5.5-0.6,8.1c-0.1,1.8-0.3,3.6-0.4,5.4c0.5,1.7,0.1,2.9-1.4,3.6c-0.6,2.8-2.3,14.1-0.6,15.8
	c13.1-12.1,27.2-24.8,30.9-42c2.3-10.6-1-22.9-9.5-30.2c-2.7-2.3-7.1-6-10.6-6.7c-3.2-0.6-2.3,0.9-2.6,4.5
	C134.5,26.6,135.3,31.5,132.9,33.1z"/>
<path class="st0" d="M426.1,107c3.3-2.8,2.2-13,2.5-17.3c0.5-6.9,2.1-12.4,2.6-19.5c0.3-3.6,1.1-5.6,2-8.8c0.8-3.1-0.1-6.6,0.7-9.7
	c1-3.8,2.5-7.7,0.9-11.8c-1.5-3.9-5.3-4.4-4.1-9.4c1-4.1,4-5.5,8.3-5.7c0.6,1.5,1.5,1.6,2.5,0.2c1.1,0.1,2.1,0.2,3.2,0.2
	c3.5,0.8,3.9,2.6,4.3,6c0.3,3.3-1,6.8-0.8,10.2c0.3,3.1,1.2,5,2,7.8c1.7,6.7,3.5,14.1,4.9,21.3c0.5,2.7,0.9,5.6,1.6,8.4
	c0.5,2.2,1.1,4.5,1.8,7c0.7,2.3,0.4,4.2,0.8,6.4c1.7,8.6,3.8,16.7,4.2,25.9c0.1,1.6,1.8,4.6,2,6.2c0.3,2.5,0,4.4,0.8,6.7
	c0.8,2.3,0.6,4.2,0.8,6.8c0,0.5,1,5.1,1.4,5.6c1.4-1.8,2.2-7.2,2.6-9.4c0.8-4.4,0.7-9.3,1-13.8c0.7-9.2,1.3-18.4,2-27.7
	c1.3-18.2,3.7-35.2,5-53.1c0.6-8.3,2.4-15.2,3-23.2c0.2-2.7,0-6.6,1.9-8.4c2.2-2.1,7-2.7,9.4-1c3.3,2.3,2.6,4.3,1.8,7.4
	c-0.8,3.3-1.2,7.1-1.4,10.8c-0.7,9.6-2.4,17.6-3.1,27.1c-0.6,8.2-1.2,16.5-1.8,24.7c-0.3,4.7-1.8,7.4-2.2,12
	c-0.4,4.9-0.7,9.9-1.1,14.8c-0.6,8.6-1.2,17.1-1.9,25.6c-0.3,4.5-0.7,9-1,13.5c-0.1,1.8-0.3,3.6-0.4,5.4c-0.1,1.8-0.3,3.6-0.4,5.4
	c-0.4,0.4-0.8,0.7-1.2,1c-1.7,8.1-1.1,16.4-3,24.1c-0.7,2.8-1.5,7.7-5,8.8c-3.2,1-7.2-0.7-8.8-3.5c-3-5.2-2.2-11.2-3.8-17.2
	c-1.4-5.3-2-9.8-2.6-15c-0.4-0.5-0.8-1-1.2-1.4c0.1-0.9,0.1-1.8,0.2-2.6c-0.4-2-0.7-3.4-1.1-5.6c-0.5-2.8-0.7-5.6-1.5-8.1
	c-1-3.2-1-6.7-1.8-10c0-0.2-0.9-3.3-0.9-2.9c0.1-1.6,0.2-3.2,0.3-4.8c-0.4-0.5-0.8-0.9-1.2-1.4c-0.9-5.6-0.8-11.4-2.5-16.5
	c-1.9-5.9-1.4-12.5-4.3-18.5c-2,1.7-0.9,9.6-1.3,12.3c-0.4,2.4-1.6,3.9-1.8,6.8c-0.2,2.3-0.3,4.6-0.5,6.9
	c-0.7,10.1-2.6,18.8-3.4,28.6c-1.3,18.3-3.2,35.9-6.2,53.5c-1.3,7.8-11.2,11.9-13.7,2.3c-0.4-1.7,0.7-4.4,0.9-5.6
	c0.3-1.6,0.8-3.8,0.9-5.7c0.4-5.4,2-9.5,2.3-14.8c0.3-4.6,0.7-9.2,1-13.8c0.4-5,1.9-8.9,2.2-13.5C424.6,126.9,425.3,116.9,426.1,107
	z"/>
<path class="st0" d="M212.4,185.3c0.3-4.7-0.4-9.5-0.7-14.1c-0.3-4-0.4-8.4-0.8-12.3c-0.5-4.6-0.3-9.3,0-14c0.2-2.7-0.5-4.3-0.7-6.6
	c-0.2-2.9,1.3-5.4-0.8-7.6c-1-1.1-5.5-2.3-7.1-2.8c-1.1-0.3-2.8-0.9-3.8-1.1c-3.5-0.6-3.3-0.6-3.6,3.5c-0.4,5.2-1.8,9.3-2.1,14.1
	c-0.5,6.4-1,12.9-1.4,19.3c-0.4,6-0.9,12-1.3,18c-0.3,3.5,0.3,8.7-2.6,11.1c-4.5,3.8-9.9,0.4-10.3-4.7c-0.5-5.5,0.9-11.8,1.3-17.4
	c0.4-6.1,0.2-12.8,1.4-18.7c0.1-0.7,0.9-1.1,1.1-2.1c0.2-1.2,0.2-2.7,0.3-3.9c0.2-2.6,0.4-5.3,0.6-7.9c0.2-2.5,0-5.5,0.6-8
	c0.3-1.4,2.8-4.5,1.7-6.6c-0.7-1.3-3.6-1.1-4.3-2.4c-1-2,0.7-5.2,1.9-6.4c1.4-1.3,2.2-1.2,3.3-2.5c1.3-1.6,1.3-3.2,1.5-5.8
	c0.4-5.1,0.7-10.3,1.7-15c1-4.7,0.6-10.5,1.7-15.4c0.3-1.3,1.3-2.5,1.5-4.5c0.2-2.2,0-4.8,0.5-7c0.5-1.9,1.2-3,1.5-5.3
	c0.2-1,0-2.2,0.2-3.2c0.3-1.1,1.2-2.3,1.3-3.1c1.1-4.5,1-8.3,2.1-12.7c1-3.9,2.8-8,3.7-12c0.9-4.3,4.4-17,11.4-13.4
	c4.6,2.3,2.5,5.1,2.3,8.2c-0.1,1.2,0.3,4.1,0.5,5.6c0.3,2.6,0.4,4.5,0.6,7.3c1.2,15.9,2.9,32.5,4.1,48.3c1.3,18.1,2.3,36.1,3.2,54.3
	c0.5,10.9,0.3,21.6,1.1,32.2c0.2,2.6,0.3,4.9,0.5,7.1c0.2,2.1,0,5.5-0.5,7.5c-0.8,2.7-1.7,4.5-5.3,4.4
	C215.2,189.7,214.3,187.6,212.4,185.3z M200.4,84.3c-0.4,5.4-0.1,11.7-1.2,17c-1.4,0.7-1.9,1.9-1.4,3.5c-0.1,0.8-0.1,1.6-0.2,2.4
	c-0.2,2.1-1.4,6.6-0.1,8.4c-0.2-0.2,3.7,1.3,3.3,1.3c1.1,0.1,2.2,0.2,3.3,0.2c0.4,0.4,0.8,0.8,1.2,1.2c4.2,0.6,4.6-1.2,4.2-5.3
	c-0.2-2.2-0.4-3.4-0.6-5.7c-0.9-7.6-1-15.2-1.8-22.7c-0.2-2.3-0.6-4.5-0.7-6.6c0.1-1.1,0.2-2.1,0.2-3.2c0.6-1.3,0.3-2.4-0.8-3.1
	c-0.2-2.4,0.7-5,0.5-7.4c0-0.3-1.1-4.6-1.4-4.9c-1.4,1.2-0.5,5-1,6.7c-0.3,1.1-1.2,2.5-1.4,3.2C201.7,73.5,203.8,81.8,200.4,84.3z"
	/>
<path class="st0" d="M589.5,122.4c-1.5,1.2-2,4.9-2.8,6.6c-1,2-1.3,4.1-2.1,6.3c-0.5,1.6-1.9,3.5-2.6,5c-1,2.4-1.8,4.9-3.1,7.4
	c-4.3,8.4-8.7,16.5-15.1,24c-6.2,7.3-14.9,15.6-24.2,17.5c-11,2.2-20.3-4.3-25.2-14.4c-2.3-4.8-3.7-9.1-4.8-13.9
	c-0.6-2.9-0.5-6-1.2-8.7c-0.9-3.1-0.1-5.9-0.5-9.4c-0.8-7.1-0.2-14.9,0.4-22.7c0.3-4.1,0.6-8.2,0.9-12.4c0.2-2.2,0.1-4.7,0.5-6.9
	c0.1-0.9,0.1-1.8,0.2-2.8c0.5-0.3,0.9-0.6,1.3-1.1c0.4-1.6,0-3.4,0.4-5c0.3-1.3,1.2-2.6,1.4-3.4c0.7-2.9,0.8-4.9,1.8-7.4
	c0.9-2.5,0.9-5,1.8-7.5c0.2-0.6,1.1-1.9,1.5-2.7c0.6-1.6,1-2.8,1.6-4.3c2.9-7.5,6.7-16.1,11.6-23.3c9.7-14.6,26.1-34.6,45.7-28.1
	c4.4,1.4,9.2,7.6,9.6,12.1c0.4,4.8-3.2,9.9-8.4,6.9c-4.2-2.5-1-7.6-6.4-9.1c-4.9-1.4-10.6,3.2-14.3,6.2c-7.8,6.1-13.1,14.7-18,23.1
	c-1.5,2.6-2.8,5.6-4.2,8.2c-2.3,4.2-3.1,9-5.1,13.4c-2.1,4.6-3.5,8.7-4.7,13.4c-0.8,3.1-1.7,6-1.9,9.1c-0.3,4.1-1.5,6.6-2,10.4
	c-1.8,14.3-1.5,28.4-0.6,41.7c0.4,5.6,2.2,11.3,4.2,16.7c1.9,5.1,5.4,13,12.6,10.8c3.1-0.9,8.2-5.8,10.5-8c2.2-2.1,4.2-4,6.2-6.5
	c2.8-3.4,4.8-6.8,7-10.4c4.8-7.7,8.9-16.4,11.7-25.3c0.6-2.1,1.9-4.8,2.9-6.9c-0.3,0.6,1.4-2.9,1.4-2.5c0.1-1.1,0.2-2.2,0.3-3.3
	c-0.2-1,0.2-1.7,1.3-2.1c0.8-3.2,0.6-5.8,1.9-8.7c1-2.2,1.2-8.1,3.1-9.5c-1.3-2.8-10.5-2.4-13-2.6c-4.1-0.3-12.9,0.2-14.6-5.1
	c-1.3-4.1,3.2-6,6-6.7c5.3-1.2,9.5,0.8,15,1.2c3.1,0.2,6.1,0.4,9.1,0.7c2.2,0.2,5.9,0.5,7.6,1.7c0.9,1,1.9,1.9,2.8,2.9
	c-0.6,1.4-0.3,2.6,1,3.4c0,1.9-1.1,2.9-1.4,4.2c-0.1,1.2-0.2,2.4-0.3,3.6c0.3,1.4-0.2,2.4-1.5,2.8c-0.1,1.4-0.2,2.9-0.3,4.3
	c-0.4,0.3-0.8,0.6-1.2,0.9c-0.8,3.2-0.6,5.8-1.9,8.6C590.2,117.2,589.7,119.4,589.5,122.4z"/>
<path class="st0" d="M375.1,182.8c2.1-28.2,5.1-55.1,7.2-83.3c0.3-3.7,1.7-5.7,1.9-9.4c0.2-3.2,0.5-6.4,0.7-9.6
	c0.3-3.7,0.5-7.3,0.8-11c0.3-4.1,1.8-6.8,2-10.7c0.9-12.8,3-24,3.9-36.7c0.3-4.1,1.1-9.2,6.3-8.9c6.6,0.4,6.6,9.1,5.6,14.1
	c-1,5.2-2,10.5-2.4,16.4c-0.5,7.4-1.1,14.7-1.6,22.1c-0.3,3.5-0.1,7.6-0.8,11c-0.6,2.6-1.5,4.5-1.7,7.6c-0.5,7.4-1.1,14.8-1.6,22.2
	c-0.5,6.5-2.1,11.7-2.6,18.5c-0.5,7.3-1.1,14.5-1.6,21.8c-0.3,4.1-0.6,8.2-0.9,12.2c-0.1,1.8-0.3,3.6-0.4,5.4
	c-0.1,1.4-0.2,2.7-0.3,4.1c-0.5,0.4-0.9,0.8-1.4,1.2c-1.5,6.7,0,14-2.5,20.4c-1.6,4.1-3,7.3-8.4,6.1
	C369.8,194.5,371.8,187.7,375.1,182.8z"/>
</svg>
