<?xml version="1.0" encoding="utf-8"?>
<!-- Generator: Adobe Illustrator 23.0.6, SVG Export Plug-In . SVG Version: 6.00 Build 0)  -->
<svg version="1.1" id="レイヤー_1" xmlns="http://www.w3.org/2000/svg" xmlns:xlink="http://www.w3.org/1999/xlink" x="0px"
	 y="0px" viewBox="0 0 450.1 203" style="enable-background:new 0 0 450.1 203;" xml:space="preserve">
<style type="text/css">
	.st0{fill:#004B73;}
</style>
<path class="st0" d="M242.1,174.1c0-0.1,0.1-0.2,0.1-0.3c0.2-1.4,0.4-2.7,0.5-4.1c0.6-5.6,1.2-11.2,1.6-16.8c0.3-4,0.7-8,1-12.1
	c0.3-3.6,0.5-7.2,0.8-10.8c0.3-4,0.7-8,1.1-12c0.3-3,0.6-5.9,0.8-8.9c0.3-2.7,0.6-5.5,0.8-8.2c0.4-4.3,0.7-8.7,1.1-13
	c0.5-5.1,0.8-10.2,1.5-15.2c0.1-0.7,0.2-1.5,0.2-2.2c0.3-3.1,0.5-6.1,0.8-9.2c0.2-2.1,0.4-4.2,0.7-6.3c0.3-2.2,0.6-4.4,0.9-6.6
	c0.1-0.8,0.2-1.7,0.3-2.5c0.2-2.5,0.6-5.1,1-7.6c0.8-4.5,1.5-9,2.2-13.5c0.6-4,1.5-7.9,2.2-11.9c0.1-0.6,0.3-1.3,0.5-1.8
	c0.8-2.1,2.7-3,4.9-2.4c1.3,0.4,2.4,1.9,2.5,3.4c0.1,0.9-0.1,1.7-0.2,2.5c-0.4,2-0.8,4-1.1,5.9c-0.6,3.1-1.1,6.3-1.7,9.4
	c-0.4,2.3-0.7,4.6-1.1,6.9c-0.7,3.8-1.2,7.5-1.5,11.4c-0.2,2.2-0.5,4.4-0.8,6.6c-0.5,3.4-0.8,6.7-1.1,10.1c-0.3,3.3-0.6,6.5-1,9.8
	c-0.2,2.3-0.6,4.6-0.8,7c-0.3,3.9-0.6,7.8-0.9,11.7c-0.3,3.4-0.6,6.8-0.9,10.1c-0.3,3.3-0.8,6.5-1,9.8c-0.2,2.7-0.6,5.5-0.8,8.2
	c-0.4,4.5-0.8,9.1-1.1,13.6c-0.3,3.9-0.6,7.8-0.9,11.7c-0.3,4.1-0.6,8.3-1,12.4c-0.4,4.3-0.9,8.7-1.5,13c-0.5,3.1-0.9,6.3-1.4,9.5
	c-0.5,3.2-1.1,6.5-1.6,9.7c-0.2,1.1-0.4,2.3-0.6,3.5c-0.1,0.7-0.3,1.5-0.7,2.1c-1.1,1.8-2.9,2.3-4.3,1.9c-1.1-0.3-1.9-0.9-2.4-1.9
	c-0.3-0.6-0.5-1.2-0.7-1.8c-0.5-1.9-0.9-3.7-1.3-5.6c-0.5-2.2-1-4.3-1.5-6.5c-2.4-9.1-4.8-18.3-7.1-27.4c-2.2-8.6-4.2-17.3-5.9-26.1
	c-1.2-6.1-2.2-12.3-3.3-18.5c-0.2-1.1-0.4-2.3-0.7-3.4c0-0.2-0.2-0.4-0.3-0.6c-0.2,0.3-0.5,0.5-0.5,0.8c-0.1,0.5-0.2,1-0.3,1.6
	c-0.3,2.5-0.6,5.1-0.9,7.6c-0.3,2.3-0.6,4.6-0.9,6.9c-0.6,5.1-1.3,10.1-1.9,15.2c-0.2,1.7-0.4,3.4-0.6,5.1
	c-0.6,5.2-1.5,10.3-2.4,15.4c-1.1,6.5-2.2,13-3.3,19.4c-0.4,2.2-0.6,4.4-1,6.6c-0.4,2.3-0.7,4.6-1.2,6.9c-0.3,1.5-1.3,2.4-2.7,2.9
	c-0.1,0-0.2,0.1-0.3,0.1c-1,0.1-1.8,0.5-2.6,1.1c-0.7,0.5-1.6,0.7-2.4,0.6c-1.5-0.1-2.6-1-3.2-2.3c-0.4-0.9-0.7-1.8-0.9-2.7
	c-1.3-4.5-2.3-9-3.1-13.6c-1-5.7-2-11.5-3-17.3c-0.3-1.7-0.5-3.4-0.7-5c-0.9-6.5-1.9-13-2.8-19.5c-0.8-5.2-1.5-10.5-2.2-15.8
	c-0.6-4.5-1.1-9.1-1.6-13.6c-0.2-1.5-0.4-2.9-0.5-4.4c-0.6-5.3-1.2-10.5-1.8-15.8c-0.3-2.6-0.5-5.3-0.8-7.9c-0.5-4.7-1-9.5-1.6-14.2
	c-0.4-2.9-0.7-5.9-0.9-8.9c-0.5-5.6-0.9-11.2-1.2-16.8c-0.1-1.4-0.1-2.8-0.2-4.1c0-1-0.1-1.9-0.1-2.9c-0.5-6.6-0.7-13.1-0.6-19.7
	c0-0.7,0-1.5,0.1-2.2c0-0.4,0.2-0.8,0.3-1.2c0.4-1.3,1.8-2.2,3.2-2.2c1.7,0,2.8,1.3,3.1,2.3c0.3,0.8,0.3,1.7,0.3,2.5
	c0.1,2.5,0.2,5.1,0.3,7.6c0.1,4,0.5,8,0.9,12.1c0.4,4.9,0.7,9.7,1.1,14.6c0.3,4.1,0.5,8.3,1,12.4c0.7,5.7,1.3,11.4,1.9,17.1
	c0.5,4.7,0.9,9.5,1.5,14.2c0.7,6.6,1.4,13.3,2.3,19.9c0.5,4,1,8,1.5,12c0.3,2.2,0.5,4.4,0.9,6.6c0.5,3.5,1,6.9,1.5,10.4
	c0.5,3.6,1,7.1,1.6,10.7c0.6,4,1.2,8,1.8,12c0.4,2.8,1,5.6,1.4,8.5c0.4,2.3,0.8,4.6,1.2,6.9c0.2,1.1,0.5,2.3,0.7,3.4
	c0,0.1,0.1,0.2,0.2,0.3c0.3,0.1,0.6-0.1,0.7-0.4c0.2-1,0.4-2.1,0.5-3.1c0.8-4.4,1.6-8.8,2.3-13.2c1-6,2-11.9,2.9-17.9
	c0.3-1.8,0.4-3.6,0.7-5.4c0.3-2.4,0.6-4.8,0.9-7.3c0.3-2.4,0.6-4.8,0.9-7.3c0.3-2.4,0.6-4.8,0.9-7.3c0.4-2.8,0.8-5.7,1.1-8.5
	c0.2-1.9,0.5-3.8,0.7-5.7c0.7-6.4,1.4-12.9,2.2-19.3c0.3-2.5,0.6-5.1,0.9-7.6c0.2-1.4,0.1-2.7,0-4.1c-0.8-6.2-1.7-12.4-2.7-18.6
	c-1.2-7.3-2.3-14.7-3.5-22c-0.5-3.2-1.1-6.5-1.5-9.8c-0.5-3.5-0.8-7-1.2-10.4c-0.1-0.7-0.1-1.5,0-2.2c0-0.5,0.1-1.1,0.3-1.6
	c0.6-1.5,1.8-2.6,3.7-2.4c1.3,0.1,2.2,0.8,2.7,2c0.2,0.5,0.4,1,0.4,1.5c0.1,3.4,0.7,6.8,1.2,10.1c0.7,4.6,1.6,9.2,2.4,13.8
	c0.4,2.1,0.7,4.2,1.1,6.3c0.2,0.9,0.4,1.9,0.6,2.8c0,0.2,0.2,0.3,0.3,0.4c0.5-0.5,0.6-1.1,0.7-1.7c0.3-1.7,0.5-3.4,0.8-5
	c0.8-4.7,1.4-9.4,2.3-14.1c0.4-1.9,0.6-3.8,0.9-5.7c0.4-2.3,0.8-4.6,1.3-6.9c0.2-0.9,0.5-1.6,1-2.3c1.4-1.9,4.1-1.9,5.5-0.1
	c0.3,0.4,0.5,0.9,0.6,1.5c0.2,0.9,0.1,1.7-0.1,2.5c-0.3,1.7-0.6,3.3-0.9,5c-0.8,6.1-1.6,12.2-2.4,18.3c-0.3,2.2-0.7,4.4-1,6.6
	c-0.8,4.8-1.6,9.6-2.1,14.5c-0.3,2.6-0.7,5.3-1,7.9c-0.3,2.8-0.6,5.7-0.9,8.5c-0.3,2.2-0.2,4.5,0.1,6.7c0.8,6.2,1.8,12.4,2.9,18.5
	c1.2,6.6,2.3,13.2,3.5,19.7c2,11.4,4.4,22.7,7.2,33.9c1.6,6.5,3.4,12.9,5,19.4c0.2,0.9,0.5,1.8,0.7,2.8c0.1,0.2,0.3,0.3,0.4,0.4
	C241.9,174.1,242,174.1,242.1,174.1z"/>
<path class="st0" d="M373.7,193.8c-0.7,1.3-1.7,1.8-2.6,2.5c-0.2,0.7-0.3,1.4-0.5,2.1c-0.3,1.3-1.6,2.7-3.5,2.7
	c-1.4,0-2.5-0.5-3.2-1.7c-0.5-0.7-0.8-1.5-0.9-2.3c-0.3-1.5-0.6-2.9-0.9-4.4c-0.6-3.6-1.5-7.1-2.3-10.6c-2.3-9.6-4.8-19.1-7.3-28.7
	c-1.1-4.2-2.1-8.5-3-12.7c-1.4-6.4-2.8-12.9-4.3-19.3c-2.3-9.8-4.6-19.6-6.7-29.5c-2.1-9.7-4.1-19.5-6.2-29.3
	c-0.1-0.5-0.3-1-0.4-1.4c-0.3-0.3-0.5-0.3-0.5,0c-0.1,0.7-0.1,1.5-0.1,2.2c-0.1,7.3-0.1,14.6-0.2,22c0,6,0,12.1-0.1,18.1
	c-0.1,7.2-0.1,14.4,0.1,21.7c0.1,3.9,0,7.9,0.1,11.8c0,1.5,0,3,0,4.5c0.3,14.1,0.2,28.2-0.4,42.3c-0.1,3.2-0.2,6.4-0.3,9.5
	c0,0.8-0.1,1.7-0.2,2.5c-0.1,0.8-0.4,1.6-1,2.3c-1.7,1.9-4.6,1.7-6-0.4c-0.3-0.5-0.5-0.9-0.5-1.5c-0.1-0.8-0.2-1.7-0.1-2.5
	c0.1-3.7,0.2-7.4,0.3-11.1c0.4-9.2,0.6-18.5,0.5-27.7c-0.1-6.6-0.2-13.2-0.1-19.7c0-4.8-0.1-9.6-0.2-14.3c0-1.9-0.1-3.8,0-5.7
	c0.1-17.1,0.1-34.2,0.4-51.3c0.2-14.1,0.5-28.2,1.2-42.3c0.1-2.3-0.1-4.7-0.4-7c-0.3-2.2-0.4-4.4-0.3-6.7c0-0.4,0.1-0.8,0.1-1.3
	c0.3-2,2.2-3.3,4.2-2.9c0.9,0.2,1.6,0.7,2,1.4c0.6,1,1.1,2,1.6,3.1c0.2,0.5,0.3,1,0.4,1.5c0.1,1,0,1.9,0,2.9
	c-0.1,6.7-0.2,5.1,0.9,11.4c0.4,2.3,0.8,4.6,1.3,6.9c1.2,6.6,2.5,13.1,3.7,19.7c1.4,7.4,2.9,14.8,4.4,22.2
	c2.4,11.2,4.8,22.4,7.4,33.6c2.1,9.1,4.2,18.2,6.2,27.3c0.8,3.6,1.5,7.3,2.4,10.9c1.1,4.5,2.2,9.1,3.4,13.6
	c1.2,4.6,2.4,9.3,3.6,13.9c0.2,0.6,0.4,1.2,0.6,1.8c0,0.1,0.2,0.1,0.3,0.1c0.1,0,0.2-0.1,0.2-0.1c0.1-0.3,0.2-0.6,0.2-0.9
	c0.2-3.7,0.4-7.4,0.3-11.1c0-0.3,0-0.6,0-1c0.1-8.6-0.2-17.2-0.3-25.8c0-1.9,0-3.8,0-5.7c0-1.8-0.1-3.6-0.1-5.4
	c-0.1-2.3-0.1-4.7-0.2-7c-0.3-9-0.5-18-0.6-27.1c0-2.5,0-5.1,0-7.6c0-1.1,0-2.1,0-3.2c-0.3-7-0.3-14-0.1-21
	c0.1-6.4,0.2-12.7,0.4-19.1c0.2-6.5,0.4-12.9,0.6-19.4c0.2-4.5,0.5-8.9,0.7-13.4c0-0.5,0.1-1.1,0.2-1.6c0.2-0.8,0.6-1.6,1.3-2.1
	c2.1-1.7,4.9-0.4,5.4,2.1c0.1,0.3,0.1,0.6,0.1,0.9c0,0.7,0,1.5,0,2.2c-0.1,6-0.2,12.1-0.3,18.1c-0.2,9-0.3,18-0.5,27.1
	c-0.1,5.8-0.2,11.7-0.1,17.5c0.1,6.6,0.2,13.2,0.3,19.7c0.1,4.6,0.1,9.1,0.1,13.7c0,0.6,0,1.3,0,1.9c0.2,5.4,0.4,10.8,0.6,16.2
	c0,0.4,0,0.8,0,1.3c0.1,4.5,0.2,8.9,0.2,13.4c0.1,5.2,0.1,10.4,0.1,15.6c0,1.5,0.1,3,0.1,4.5c0.1,4.1,0.1,8.3-0.1,12.4
	c-0.2,6.6-0.4,13.2-0.6,19.7c0,0.8-0.1,1.7-0.1,2.5C374.1,192.2,373.9,193.1,373.7,193.8z"/>
<path class="st0" d="M422.5,102.1c1.2-0.1,2.4-0.1,3.5-0.3c1.8-0.3,3.6-0.3,5.4-0.4c1,0,1.9,0,2.9,0.1c0.5,0,1,0.2,1.5,0.4
	c2.1,0.6,3.4,2,4,4.1c0.2,0.8,0.4,1.6,0.5,2.5c0.3,3,0.6,5.9,0.6,8.9c0,4,0,8.1,0,12.1c0,1.9-0.2,3.8-0.2,5.7
	c-0.1,1.4-0.1,2.8-0.2,4.1c-0.1,3.3-0.1,6.6-0.3,9.9c-0.2,3.2-0.5,6.3-0.8,9.5c-0.2,2.4-0.6,4.8-0.9,7.3c-0.5,4-1.2,8-2.1,11.9
	c-0.9,3.9-2.2,7.8-3.8,11.5c-0.8,1.9-1.8,3.6-3,5.3c-1.2,1.7-2.7,3-4.4,4.1c-0.4,0.2-0.7,0.4-1.1,0.6c-2.4,1.3-8.1,1.9-11.5,0.5
	c-1.5-0.6-2.8-1.4-4-2.6c-0.9-0.9-1.7-1.9-2.4-3c-3.4-5.2-6.4-10.5-8.8-16.2c-1.3-3.1-2-6.3-2.4-9.5c-0.7-4.9-0.8-9.9-1-14.9
	c-0.1-3.8-0.2-7.6-0.4-11.5c-0.1-2.8-0.3-5.5-0.5-8.3c-0.8-13-1-26.1-1-39.1c0-3.4,0.2-6.8,0.2-10.2c0.1-5.8,0.5-11.7,0.8-17.5
	c0.3-4.4,0.5-8.9,0.8-13.3c0.3-4.2,0.7-8.5,1.2-12.7c0.4-4,1.1-8,1.9-11.9c0.5-2.6,1.1-5.2,1.7-7.8c0.8-3.5,2-6.9,3.4-10.2
	c0.4-1,0.9-1.9,1.5-2.8c1.6-2.6,3.9-4.1,6.8-5c1-0.3,2.1-0.5,3.1-0.5c3.2,0,6.3,0.6,9.3,1.9c1.6,0.7,3,1.6,4.2,2.8
	c1.5,1.4,2.8,2.9,3.9,4.6c2.1,3.1,3.7,6.4,4.8,10c1.3,4,2.4,8.2,3.1,12.3c0.7,4.3,1.2,8.6,1.6,12.9c0.5,5.6,0.5,11.2,0.5,16.9
	c0,5.5-0.1,11-0.1,16.6c0,0.7,0,1.5-0.1,2.2c0,0.9-0.3,1.7-0.6,2.5c-0.6,1.2-1.9,2-3.4,1.8c-1.4-0.1-2.6-1.3-2.9-2.6
	c-0.1-0.5-0.1-1.1-0.1-1.6c-0.1-7-0.2-14-0.4-21c-0.1-4-0.2-8.1-0.6-12.1c-0.3-3-0.5-5.9-0.8-8.9c-0.7-5.6-1.8-11.1-3.5-16.5
	c-0.8-2.4-1.8-4.8-3.1-7c-0.9-1.5-2-3-3.3-4.3c-0.9-0.9-2-1.6-3.2-2c-1.4-0.5-2.9-0.8-4.4-0.8c-0.4,0-0.9,0-1.3,0.1
	c-1.2,0.1-2.2,0.7-2.9,1.8c-0.4,0.7-0.8,1.5-1.1,2.3c-1.5,3.3-2.4,6.8-3.2,10.3c-0.9,4.1-1.7,8.3-2.4,12.5c-0.2,1.6-0.5,3.2-0.6,4.7
	c-0.4,4-0.8,8-1.1,12c-0.4,5.3-0.7,10.6-1,15.9c-0.7,10.5-1,21-0.8,31.5c0.1,5.6,0.1,11.2,0.2,16.9c0,0.7,0,1.5,0.1,2.2
	c0.3,6.1,0.7,12.3,1,18.4c0.2,4.7,0.4,9.3,0.6,14c0.1,2.7,0.1,5.3,0.3,8c0.2,2.3,0.4,4.7,0.7,7c0.5,3.6,1.7,7,3.3,10.2
	c1.7,3.3,3.4,6.6,5.4,9.7c0.6,1,1.3,1.9,2,2.8c0.8,1,1.8,1.5,3,1.5c0.7,0,1.5,0,2.2-0.1c1.3-0.1,2.4-0.7,3.4-1.6
	c0.5-0.5,1-1.1,1.4-1.8c0.8-1.2,1.4-2.4,1.9-3.7c1.7-4.2,2.9-8.6,3.8-13.1c1.2-5.8,1.9-11.7,2.4-17.7c0.5-5.6,0.7-11.2,0.8-16.8
	c0.1-2.9,0.2-5.7,0.3-8.6c0.2-4.8,0.2-9.5-0.1-14.3c-0.1-1.3-0.1-2.5-0.2-3.8c0-0.4-0.1-0.8-0.2-1.2c-0.1-0.3-0.3-0.5-0.7-0.6
	c-0.2-0.1-0.4-0.1-0.6-0.1c-1.1,0.1-2.1,0.1-3.2,0.2c-1.9,0.2-3.8,0.4-5.7,0.6c-1.1,0.1-2.1-0.1-3.1-0.4c-2-0.6-3.5-2.6-3.7-4.8
	c-0.1-2.1,1.7-4,3.7-3.9c0.4,0,0.8,0.1,1.2,0.2C421,101.4,421.6,101.7,422.5,102.1z"/>
<path class="st0" d="M19.4,196.9c-0.5,1.3-1,2.3-1.9,3.2c-2.3,1.2-3.7,1.7-5.7,2c-1.1-0.4-1.8-1.4-2.2-2.5c-0.3-0.9-0.5-1.9-0.5-2.8
	c-0.1-2.3-0.3-4.7-0.2-7c0.1-5.1-0.2-10.2-0.5-15.3c-0.3-5.5-0.5-11-0.4-16.5c0.1-6.2,0.2-12.3,0.3-18.5c0.1-4.9,0-9.8-0.2-14.6
	c-0.1-2.5-0.4-5.1-0.5-7.6c-0.3-6.9-0.6-13.8-0.3-20.7C7.8,89.9,8,83.3,8.2,76.7c0.1-2.9,0.1-5.7,0.1-8.6c0-6.7,0.1-13.4,0.3-20.1
	c0.1-3.1,0.1-6.2,0-9.2c-0.1-3.7-0.2-7.4-0.4-11.1c0-1.1-0.1-2.1-0.3-3.2c-0.1-0.7-0.1-1.5-0.1-2.2c0-2.6-0.1-5.1-0.6-7.6
	c-0.1-0.6-0.2-1.3-0.2-1.9c-0.2-1.6-0.3-3.2-0.5-4.8C6.4,6.8,6.7,5.5,7.4,4.4C7.7,3.9,8,3.3,8.4,2.8c1-1.3,2.5-1.6,4-1.1
	c0.5,0.2,1,0.4,1.4,0.7c1.1,0.6,2.1,1.5,3,2.3c4.7,4.4,8.7,9.3,12,14.8c3.1,5.2,5.9,10.6,8.2,16.1c1.7,4.1,2.9,8.4,3.7,12.8
	c0.7,3.9,1,7.8,1.3,11.7c0.4,6.1,0.8,12.3,1.2,18.4c0.4,5.5,0.8,11,1.1,16.5c0.3,5.4,0.7,10.8,0.8,16.2c0.1,5.3,0.2,10.6-0.2,15.9
	c-0.3,4.6-0.5,9.1-1.2,13.6c-1.2,8-2.8,15.9-5.3,23.6c-1,3-2.1,6-3.3,9c-0.6,1.6-1.4,3.1-2.3,4.5c-2.2,3.6-4.4,7.3-7,10.6
	c-0.5,0.6-0.9,1.2-1.3,1.8C23.2,192.7,21.5,194.8,19.4,196.9z M16.7,186.9c0.2,0,0.4,0.1,0.6,0.1c0.1,0,0.2-0.1,0.3-0.2
	c3.4-4.4,6.4-9,9.2-13.7c0.5-0.8,0.9-1.7,1.3-2.6c1.1-2.6,2.2-5.3,3-8c2.7-8.8,4.7-17.8,5.5-27.1c0.4-4.5,0.7-9.1,0.9-13.7
	c0.1-5.5,0-11-0.3-16.5c-0.2-3.6-0.4-7.2-0.6-10.8c-0.4-4.5-0.5-9.1-0.9-13.7c-0.4-4.5-0.5-9.1-1-13.7c0-0.3,0-0.6-0.1-1
	c-0.1-2.1-0.2-4.2-0.4-6.4c-0.3-3.3-0.6-6.6-1.1-9.8c-0.7-4.2-1.9-8.3-3.6-12.2c-2.1-4.9-4.6-9.6-7.1-14.2c-1.4-2.6-3.1-5.1-4.9-7.4
	c-0.2-0.3-0.6-0.6-0.9-0.9c-0.1-0.1-0.4,0-0.6,0c-0.4,0.5-0.4,1-0.4,1.5c0.1,3.2,0.1,6.4,0.7,9.5c0.2,0.9,0.2,1.9,0,2.8
	c-0.3,1.3-0.3,2.5-0.1,3.8c0.2,1.8,0.3,3.6,0.3,5.4c0,2.4,0,4.9,0,7.3c0,3.2-0.1,6.4-0.2,9.5c-0.1,2.5-0.2,5.1-0.2,7.6
	c0,3.7,0,7.4-0.1,11.1c-0.1,5.2-0.2,10.4-0.4,15.6c0,0.3,0,0.6-0.1,1c-0.3,4.1-0.4,8.3-0.3,12.4c0,3.5,0,7,0.2,10.5
	c0.2,5.5,0.6,11,0.9,16.5c0,0.7,0.1,1.5,0.1,2.2c0,4.1,0,8.3-0.2,12.4c-0.1,1.2-0.1,2.3-0.1,3.5c-0.1,4.5-0.2,8.9-0.1,13.4
	c0,3.4,0.1,6.8,0.3,10.2c0.1,2.2,0.3,4.4,0.3,6.7c0,2.3,0,4.7,0,7C16.6,185.9,16.5,186.4,16.7,186.9z"/>
<path class="st0" d="M65.9,8c-0.2-0.9-0.5-1.7-0.7-2.5c-0.2-1.1,0.2-2.1,1-2.9c0.5-0.5,1.2-0.9,1.9-1.2C69.6,1,70.9,1.2,72,2.3
	c1.2,1.3,2.5,2.6,3.8,3.8c2,1.8,3.7,3.8,5.2,6c6.4,9.3,10.6,19.5,12.5,30.7c1,6.1,1.4,12.2,1.4,18.4c0,5.9-0.8,11.6-2.1,17.3
	c-0.3,1.4-0.7,2.9-1.2,4.3c-0.9,2.7-1.8,5.4-2.9,8.1c-1.4,3.5-3.3,6.7-5.1,9.9c-1.1,1.8-2.3,3.5-3.7,5.2c-1.3,1.6-2.8,2.9-4.5,4
	c-1,0.6-2,1.2-3,1.8c-0.4,0.2-0.6,0.6-0.8,1.1c0.1,0.4,0.3,0.9,0.5,1.4c2.1,5,4.1,10,6.4,14.9c3,6.6,5.5,13.3,7.9,20.1
	c0.7,1.9,1.3,3.8,2,5.7c1.1,3.2,2.3,6.4,3.6,9.5c1.1,2.8,2.1,5.5,3.2,8.3c1.5,4,3,8,4.7,11.8c1.5,3.4,2.8,6.9,3.9,10.4
	c0.1,0.3,0.2,0.6,0.2,0.9c0.3,1.5-0.6,3.3-2,4c-1.5,0.8-3.3,0.5-4.4-0.6c-0.5-0.5-0.9-1-1.1-1.5c-0.4-1-0.8-2-1.2-3
	c-0.8-2.3-1.7-4.6-2.6-6.8c-2-4.6-3.8-9.2-5.5-13.9c-0.9-2.5-1.8-5-2.8-7.4c-1.4-3.4-2.6-6.9-3.9-10.4c-3-8.7-6.2-17.4-9.7-25.9
	c-0.2-0.5-0.4-1-0.8-1.4c-0.1-0.1-0.2-0.1-0.3-0.1c-0.1,0-0.2,0.1-0.2,0.2c-0.1,0.5-0.1,1.1-0.1,1.6c0.2,4.5,0.3,8.9,0.4,13.4
	c0.1,7.5,0.4,15.1,1,22.6c0.2,3.1,0.4,6.1,0.4,9.2c-0.1,6.5-0.1,12.9-0.2,19.4c0,0.5,0,1.1-0.1,1.6c-0.1,0.4-0.2,0.8-0.3,1.2
	c-1,2.3-3.4,2.8-5.4,1.8c-1-0.5-1.6-1.4-1.8-2.5c-0.2-0.8-0.2-1.7-0.2-2.5c0-2.5,0.1-5.1,0.1-7.6c0-1.6,0-3.2,0-4.8
	c0-0.8,0-1.7,0-2.5c0.2-3.4,0-6.8-0.1-10.2c-0.2-3.6-0.5-7.2-0.7-10.8c-0.2-3-0.2-5.9-0.4-8.9c-0.2-4.7-0.1-9.3-0.3-14
	c-0.2-4.7-0.3-9.3-0.6-14c-0.3-4.4-0.3-8.9-0.1-13.4c0.5-11.6,1.3-23.1,2.3-34.6c0.4-4.8,1-9.5,1.3-14.3c0.2-3.5,0.4-7,0.5-10.5
	c0.1-5,0.3-10,0.3-15c0-1.1,0.1-2.1,0.1-3.2c0-0.8,0.1-1.7,0.1-2.5c-0.1-4.2,0.2-8.5,0.3-12.7C66,13.3,65.9,10.6,65.9,8z
	 M69.5,103.7c0.2,0,0.4,0.2,0.6,0.1c1.3-0.5,2.4-1.3,3.3-2.4c0.7-0.9,1.5-1.8,2.1-2.8c2.3-3.5,4.4-7,5.9-10.9
	c1.9-4.7,3.6-9.5,4.3-14.6c0.9-3.8,1.1-7.8,1.3-11.7c0-0.7,0-1.5,0-2.2c0-1.2-0.1-2.3-0.1-3.5c-0.1-3.4-0.4-6.8-0.9-10.1
	c-0.8-5.7-2.4-11.2-4.5-16.5c-1.7-4.3-3.9-8.5-6.4-12.4c-0.2-0.4-0.5-0.7-0.7-1c-0.2-0.2-0.5-0.3-0.9-0.1c0,0.4-0.1,0.8-0.1,1.2
	c0,3.1,0,6.1,0,9.2c0,5.3,0,10.6-0.1,15.9c0,1.8-0.1,3.6-0.1,5.4c-0.1,2,0,4-0.2,6c-0.4,6.3-0.9,12.7-1.4,19
	c-0.6,7.4-1.3,14.8-1.8,22.2c-0.2,2.6-0.3,5.3-0.4,7.9C69.2,102.9,69.2,103.3,69.5,103.7z"/>
<path class="st0" d="M151.7,145.3c-0.3-0.5-0.6-0.7-1.1-0.7c-3.1,0.1-6.2,0.2-9.2,0.3c-2.1,0.1-4.2,0.1-6.4,0.2c-1,0-1.9,0-2.8,0.3
	c-1,0.2-1.9,0.2-2.8-0.1c-0.3-0.1-0.6-0.1-0.9-0.1c-0.1,0-0.2,0-0.4,0.1c-0.1,0.4-0.2,0.8-0.3,1.2c-0.2,2.6-0.5,5.3-0.7,7.9
	c-0.4,4.4-0.7,8.9-1.1,13.3c-0.3,3.7-0.5,7.4-0.8,11.1c-0.3,3.2-0.5,6.3-0.9,9.5c-0.2,1.7-0.4,3.4-0.4,5.1c0,0.8-0.2,1.5-0.5,2.1
	c-0.7,1.4-1.8,2.1-3.3,2.2c-1.5,0.1-2.7-0.6-3.4-1.9c-0.2-0.4-0.4-0.8-0.4-1.2c-0.1-0.7-0.2-1.5-0.1-2.2c0.1-1.5,0.2-3,0.3-4.4
	c0.3-2.7,0.6-5.5,0.9-8.2c0.1-1.3,0.2-2.5,0.3-3.8c0.4-5.1,0.8-10.2,1.2-15.2c0.3-4,0.6-8,0.9-12.1c0.2-2.1,0.4-4.2,0.6-6.3
	c0.5-5,1.1-9.9,1.6-14.9c0.3-2.6,0.5-5.3,0.7-7.9c0.5-5.8,1.1-11.6,1.7-17.4c0.1-0.5,0.1-1.1,0.1-1.6c0.4-4,0.8-8,1.2-12
	c0.2-2.4,0.5-4.9,0.7-7.3c0.5-5.1,1-10.1,1.5-15.2c0.4-3.5,0.9-6.9,1.3-10.4c0.3-2.5,0.7-5,1-7.6c0.5-4.3,1-8.6,1.5-13
	c0.2-1.9,0.5-3.8,0.7-5.7c0.4-3.4,0.6-6.8,0.9-10.1c0.2-2.4,0.3-4.9,0.3-7.3c0-0.8,0-1.7,0.2-2.5c0.2-1.1,0.8-1.9,1.9-2.4
	c1.3-0.6,2.8-0.4,3.8,0.6c0.2,0.1,0.3,0.3,0.4,0.5c0.2,0.3,0.3,0.5,0.5,0.9c1.1,4.8,2.1,9.7,2.8,14.7c0.4,2.7,0.9,5.4,1.4,8.1
	c0.9,4.8,1.6,9.6,2.2,14.5c0.2,1.6,0.3,3.2,0.4,4.8c0.5,5.7,1,11.4,1.8,17.1c0.5,4.1,1.1,8.2,1.7,12.3c0.2,1.7,0.4,3.4,0.6,5.1
	c0.4,4.7,0.9,9.3,1.5,13.9c0.4,3.5,1,6.9,1.5,10.4c1.1,6.7,2.3,13.4,3.3,20.1c0.9,5.3,1.7,10.7,2.1,16.1c0.2,2.2,0.5,4.4,0.7,6.6
	c0.6,5.3,1.2,10.5,1.8,15.8c0.4,3.6,1,7.1,1.5,10.7c0.7,4.2,1.4,8.4,2,12.6c0.2,0.9,0.3,1.9,0.2,2.9c-0.1,1-0.4,1.8-1.1,2.5
	c-1.6,1.6-4.8,1.4-6-1c-0.2-0.5-0.4-1-0.6-1.5c-0.2-0.8-0.4-1.7-0.5-2.5c-0.4-3.7-1.2-7.3-1.8-11c-0.9-5.7-1.7-11.3-2.3-17
	c-0.2-2.3-0.5-4.6-0.8-7c-0.4-3.5-0.8-7-1.1-10.4C151.8,146.1,151.7,145.7,151.7,145.3z M138.2,47.5c-0.1,0.3-0.2,0.6-0.2,0.9
	c-0.3,2.3-0.5,4.6-0.8,6.9c-0.5,4-1.1,8-1.5,12c-0.7,6.4-1.3,12.9-2,19.3c-0.4,3.6-0.7,7.2-1,10.8c-0.2,2.1-0.4,4.2-0.6,6.3
	c-0.3,3.3-0.7,6.5-1,9.8c-0.3,3.4-0.6,6.8-0.9,10.1c-0.3,3.1-0.7,6.1-1,9.2c-0.2,1.5-0.3,2.9-0.4,4.4c0,0.4,0.5,0.9,0.8,0.8
	c2.2-0.6,4.4-0.6,6.6-0.6c4,0,8.1,0,12.1,0c0.6,0,1.3,0.1,1.9-0.3c0.2-0.1,0.3-0.3,0.4-0.5c0.1-0.2,0.1-0.4,0.1-0.6
	c-0.9-5.5-1.8-11.1-2.7-16.6c-0.7-4.3-1.5-8.6-2.1-12.9c-1.1-6.9-1.8-13.9-2.5-20.8c-0.5-4.4-1-8.8-1.6-13.2
	c-0.7-4.5-1.2-9-1.6-13.6c-0.3-3.2-0.7-6.3-0.8-9.5c0-0.5-0.1-1-0.2-1.6C138.9,47.5,138.8,47.5,138.2,47.5z"/>
<path class="st0" d="M293.3,111.5c0,2.1-0.1,4.2-0.1,6.4c-0.1,4.6-0.1,9.1-0.1,13.7c0,8.9,0.3,17.8,0.4,26.7c0,3.2,0.2,6.4,0.2,9.5
	c0,6.4,0,12.7,0,19.1c0,1.6,0,3.2-0.1,4.8c0,0.8-0.1,1.7-0.2,2.5c-0.1,0.5-0.3,1-0.6,1.5c-1.1,1.9-3.4,2.2-5,1.4
	c-1.1-0.6-1.8-1.5-2-2.7c-0.1-0.8-0.1-1.7-0.1-2.5c0-5,0.1-10,0.2-15c0-1.8-0.1-3.6-0.1-5.4c0-2.1-0.1-4.2-0.1-6.4
	c-0.1-5.4-0.2-10.8-0.3-16.2c0-2.8-0.1-5.5-0.1-8.3c0-1.3,0-2.5,0-3.8c-0.2-5.4-0.1-10.8,0-16.2c0.3-15.8,0.5-31.6,0.7-47.4
	c0-3.2,0.1-6.4,0-9.5c-0.1-7.9,0.1-15.7,0.4-23.5c0.2-5.7,0.1-11.5-0.2-17.2c-0.2-3.6,0-7.2,0.1-10.8c0-0.8,0.2-1.5,0.6-2.1
	c0.6-1.3,2-2,3.4-1.8c1.4,0.2,2.7,1.3,2.9,2.6c0.1,0.7,0.2,1.5,0.2,2.2c0.1,3.9,0.3,7.8,0.4,11.8c0,1.2,0.2,2.3,0.2,3.5
	c0.2,4.3,0.4,8.7,0.3,13c-0.1,1.8-0.1,3.6-0.2,5.4c-0.3,6.8-0.1,13.6-0.2,20.4c-0.1,14.9-0.3,29.7-0.4,44.6
	C293.4,111.5,293.4,111.5,293.3,111.5z"/>
</svg>
