<?xml version="1.0" encoding="utf-8"?>
<!-- Generator: Adobe Illustrator 23.0.6, SVG Export Plug-In . SVG Version: 6.00 Build 0)  -->
<svg version="1.1" id="レイヤー_1" xmlns="http://www.w3.org/2000/svg" xmlns:xlink="http://www.w3.org/1999/xlink" x="0px"
	 y="0px" viewBox="0 0 464.6 203" style="enable-background:new 0 0 464.6 203;" xml:space="preserve">
<style type="text/css">
	.st0{fill:#004B73;}
</style>
<path class="st0" d="M130.9,118.7c-0.2,3.3-1,5.9-1.8,9.1c-0.7,2.9-1.1,5.6-1.8,8.6c-0.3,1.2-1.2,2.8-1.5,4.4
	c-0.2,1.2-0.9,3.3-1.3,4.4c-0.3,0.7-1.2,2.7-1.4,3.3c-0.1,1.1-0.2,2.1-0.2,3.2c0.2,1.1-0.3,2-1.4,2.6c-1.3,4.2-2.1,9.8-6.2,12.3
	c-4.1,2.5-8,0.5-10.4-2.9c-2.5-3.4-3.6-8-5-12c-1.9-5.3-4.2-10.5-5.4-15.9c-1.1-5-3.4-9.6-4.8-14.6c-1-3.4-2-8.6-4.2-11.2
	c-2,3.2-1.6,8.4-2.4,11.9c-1,4.1-2.3,7.9-3.2,12.2c-0.3,1.5-1.6,4.3-2,6c-0.3,1.3-1.3,3.3-1.6,4.6c-1,4-2.4,7.8-3.6,11.6
	c-2.2,6.6-6.6,41.9-20.1,30.7c-4.1-3.4-5-10.8-6.2-15.6c-1.5-6.5-2.7-12.1-4.3-18.6c-1.4-5.9-2.2-11.9-3.7-17.5
	c-1.8-6.5-3.8-13.1-5.1-19.2c-1.4-6.6-2.5-14.2-4.2-20.4c-1.5-5.8-1.5-12.4-3.1-18.3c-2.2-8.2-1.9-16.9-2.6-25.6
	c-0.3-3.8-1.2-8.2-1.5-11.9c-0.4-5.8-0.4-11,0.1-16.9c0.3-4.6-0.5-10.9,5.1-12.7c5.7-1.9,6.9,3.8,6.1,7.3c-1,4.6-0.1,7.8-0.3,12.4
	c-0.1,2.1,0.6,3.6,0.7,5.2c0.1,1.2-0.4,2.5-0.3,3.8c0.1,1.2,0.9,2.3,1,3.2c0.4,3.7-0.1,6.8,0.3,10.5c0.5,4.5,1,8.8,1.4,13.5
	c0.1,1.6,1,4.5,1.2,6.2c0.1,1,0.3,2.7,0.5,3.8c0.6,3.4,1.5,6.7,1.9,10c0.6,6,2.4,12.1,3.8,18.1c1.6,7.4,2.8,13.9,4.8,21.2
	c1.9,7.2,3,13.7,4.8,21c0.8,3.4,1.7,6.6,2.6,9.6c0.5,1.8,2.3,8.7,1,10.5c2.4-1.7,3-6.6,3.5-9.2c0.7-3.9,2.8-7.7,3.6-11.5
	c0.2-0.9,0.5-2.6,0.8-3.9c0.3-1.1,1.1-1.4,1.3-2.2c0.4-1.5,1.3-3.4,1.6-4.5c1.2-4.9,2.1-9.2,3.2-13.9c0.5-1.9,1.1-3.2,1.5-4.9
	c0.2-0.9,0-1.9,0.2-2.8c0.3-1.5,1-1.8,1.2-2.8c0.4-1.9,0.2-3.9,0.6-5.8c0.1-0.6,0.9-1.2,1.1-2.2c0.1-1.4,0.2-2.7,0.3-4.1
	c0.5-0.5,0.9-1,1.4-1.5c0.8-3.8,1.9-8.2,1.4-11.7c-0.6-3.6-1.8-7-2.7-10.7c-1.6-6.8-3.1-12.7-4.8-19c-0.8-3.1-0.7-6.8-1.4-10.2
	c-0.8-3.5-2-7.6-2.3-11.2c-0.3-3.8-1.2-7-1.7-10.6c-0.6-3.9-1.7-8.2-1.5-12.1c0.2-4.7,5.5-7.7,8.9-3.7c2.6,3,2,7.8,3,11.3
	c0.9,3.2,1.1,6.4,1.8,9.9c0.8,3.7,1.4,6.9,2.3,10.4c1.8,6.7,1.6,14.6,4.8,21.3c1.1-1.2,1.7-5.3,2.1-6.8c0.4-1.5,1.1-3.6,1.4-4.7
	c1-4.4,1.3-8.3,2.1-12.6c0.4-2.2,1.2-4.4,1.6-7c0.4-2.1,0.5-3.6,1.9-5.4c2.7-3.4,8-3.2,9.9,0.7c1.8,3.5,0,7.1-0.8,10.4
	c-0.1,1.5-0.2,3-0.3,4.5c-1,0.4-1.5,1.2-1.3,2.1c-0.1,0.9-0.1,1.8-0.2,2.8c0.3,1.4-0.1,2.4-1.4,3c-1,3.9-1.3,7.7-2,11.5
	c-0.8,4.5-2.1,9-3.3,13.5c-0.9,3.4-2.3,7.2-3,10.5c-0.8,3.6,0.4,5.4,1.5,8.4c2.4,6.2,4.2,13.2,6.4,19.7c3.9,11.7,7,24,11.9,35.5
	c0,0,2-3.7,1.9-3.5c0.8-2.9,0.7-5.4,1.8-8.1c1.7-4.3,2-9.2,3.2-13.7c2.4-9.2,4.8-18,6.7-27.6c1.2-0.6,1.6-1.5,1.2-2.8
	c0.1-1.3,0.2-2.5,0.3-3.8c1.4-0.7,1.9-1.8,1.4-3.4c0.1-1.5,0.2-3,0.3-4.5c1.1-0.4,1.6-1.2,1.4-2.2c0.1-1.1,0.2-2.3,0.2-3.4
	c0.6-2.9,1.1-5.5,1.8-8.7c2.3-10.1,4.3-20.4,6.6-30.6c0.9-4.1,0.2-8.2,5.2-9.6c3.3-1,6.9,1.1,7.6,4.8c0.5,2.5-0.9,4.9-1.4,7.2
	c-0.1,0.9-0.1,1.7-0.2,2.6c0.5,1.7,0,3-1.4,3.8c-0.1,1.7-0.2,3.5-0.4,5.2c0.5,1.7,0,3-1.4,3.8c-0.5,2.5-0.9,5.4-1.4,7.5
	c-1.3,5.3-1.2,10.3-2.5,15.7c-1.4,0.9-1.9,2.1-1.6,3.7c-0.1,1.5-0.2,3-0.3,4.5c-1.3,0.6-1.7,1.7-1.3,3.2c-0.1,1.5-0.2,3-0.3,4.5
	c-1.2,0.7-1.7,1.7-1.4,3.1c-0.1,1.2-0.2,2.5-0.3,3.7c-1.2,0.6-1.7,1.7-1.4,3.1c-0.1,1.2-0.2,2.5-0.3,3.7c-0.4,1.7-2.1,4.7-2.5,6.4
	C132.3,114,132.9,116.9,130.9,118.7z"/>
<path class="st0" d="M248.8,110.2c-1.9-2.1-0.7-6-0.5-8.7c0.3-4-0.6-6.6-0.3-10.6c0.7-9.1,0.1-17.2,0.8-26.5
	c0.6-8.2,1.2-16.3,1.8-24.5c0.5-6.7-0.6-19.6,3.8-24.5c0.5-0.6,2.4-1.6,3.1-1.9c3-1-0.7-0.5,2.4,0.2c4.9,1.1,2.4,5.2,7.7,5
	c1.3,0,0.9-0.7,3.1-0.7c2,0,3.5,0.7,5.2,1.5c1.5,0.6,3.9,1.6,5,2.5c4,3.2,7.4,9.2,8.6,13.7c0.9,3.4,0.7,6.5,0.4,10.3
	c-0.1,1.3,0,3.2-0.3,4.5c-0.4,1.7-2.2,4.8-2.6,6.5c-1.3,5.1-3.8,9.4-6.8,14c-4,6-9.1,9.3-13.9,14.6c-3.6,3.9-0.4,7.3,1.7,11.8
	c1.9,4.1,4.6,7.8,6.5,11.8c4.7,10.4,11.1,20,15.5,30.6c1.9,4.5,4.3,8.9,6.5,13.3c2.3,4.8,8,14.6,5,19.1c-2.3,3.4-5.9,3.1-8.9,0.6
	c-2.9-2.2-2.2-4.8-3.3-7.5c-3.1-7.7-7.6-15.3-11.3-22.8c-3-6.1-5.6-12.2-8.9-18c-1.4-2.5-6.1-14.9-8.3-15c-1.7,1.9,0.1,5.5,0.2,7.1
	c0.2,3.7-1.2,7.6-0.8,11.3c0.4,0.4,0.7,0.9,1.1,1.3c-0.1,1.2-0.2,2.5-0.3,3.7c-0.1,2-0.6,4.3-0.5,6.2c0.2,3.7,0.6,6.9,0.3,11
	c-0.3,3.8,0.7,6.4,0.4,10c-0.3,4.2,0.1,7.6,0.3,11.3c0.4,5.4,0.9,19.2-6.4,20c-2.1,0.2-5.5-2.1-6.2-4.4c-0.4-1.4,0.3-4.6,0.4-6.1
	c0.1-1.9-0.6-3.5-0.7-4.9c-0.3-3.7,1.2-7.6,0.8-11.3c-0.4-3.8-0.7-6.8-0.4-11c0.3-4.2-0.7-7-0.4-11.2c0.3-3.9,0-7.2-0.2-10.8
	c-0.2-3.2,0.3-6.8,0.1-9.7C248.2,118.4,248.5,114.3,248.8,110.2z M261.2,74.2c6-5.5,11.2-11.6,14.4-19.1c2.8-6.5,4.8-19.5-2.1-24.3
	c-2.3-1.6-5.2-2.2-7.8-0.5c-0.9,0-1.1,0.5-0.9,1.4c0.2,1.4-0.4,2.3-2,2.7c-1.5,2.2-2.4,2.3-2.1,5.5c0.6,5.4,0.4,10.7-0.1,16.6
	C260.4,61.5,257.9,70.4,261.2,74.2z"/>
<path class="st0" d="M380.4,176.6c-0.2,2.9,0.3,5.6-1.9,7.5c-2.4,2.1-4.8,1.5-7.1-0.1c-2.1-1.5-2.5-4-3.6-6.6
	c-3.6-8.5-7.2-18.1-11.3-26.7c-3.5-7.4-6.9-15-10.2-22.4c-1.9-4.3-3.9-8.8-5.5-13.3c-0.8-2.2-0.7-6-2.9-7.3
	c-0.3,1.1-0.6,2.9-0.5,4.1c0.1,1.1,0.8,2.4,0.8,3.1c0.2,2.6-0.8,5.3-0.6,7.9c0.2,2.8,0.9,4.7,0.6,8.1c-0.3,3.5,0.4,6.2,0.5,10
	c0,2.7,0.7,4.3,0.5,7.1c-0.1,1.5-0.4,3-0.3,4.5c0,1.2,0.9,1.5,1,2.5c0.5,5.9-0.6,11.1-0.1,17.1c0.3,3.9,2,11.6-1.3,14.6
	c-3.6,3.4-7.4,0.9-8.9-2.3c-1.8-3.8-0.3-9.1-1-13.8c-0.9-6-0.9-12.1-1-18.3c-0.1-2.8-0.7-4.5-0.6-7.4c0-1.5,0.4-3,0.3-4.5
	c0-1.2-0.9-1.5-1-2.5c-0.5-5.8,0.5-11.1,0.1-16.8c-0.3-4.7-0.8-10.3-1.2-15.1c-0.5-5.8,0.7-10.9,0.2-16.8c-0.1-0.8-0.8-2.4-0.9-3.6
	c-0.1-1.5,0.4-3,0.3-4.5c-0.1-2-0.7-3-0.8-4.8c-0.2-3,0.5-6.4,0.2-9.3c-0.2-2.6-0.3-5.8-0.1-8.7c0.4-5.3-0.3-9.6,0.1-14.9
	c0.5-6.1-0.7-17.5,2.3-22.5c2.9-4.9,9.9-3.9,10.2,2.3c0-0.2-1,2.7-1.1,3c-0.3,1.5-0.5,4.1-0.4,5.7c0.2,3.3,0.6,6.5,0.3,10.3
	c-1,13.5,1.5,26.5,0.5,40c2,0.6,8.7-11.1,10.1-13c3.8-5.1,7.7-10.2,11.6-15.2c2.5-3.1,5.2-5.9,7.6-8.9c2.3-2.8,4.6-6.8,7.3-9.2
	c3.1-2.7,7.5-2,8.6,2.6c1.1,4.3-2.2,6.9-4.8,9.6c-9.8,10.3-16.6,22.9-25.1,34.3c-1.9,2.5-4,4.9-4.6,7.9c-0.8,4,1.1,8.1,2.2,11.8
	c1.9,6.2,4,13.6,7,19.5C365.1,139.6,372.7,157.9,380.4,176.6z"/>
<path class="st0" d="M211.8,149.6c-2.1,1.8-3.1,6.2-4.5,8.9c-1.4,2.7-3.4,5.7-5.3,8.1c-3.3,3.9-7,7.3-11.9,9
	c-12,4.3-19.9-6.5-23.3-16.7c-4.2-12.2-5.4-23.4-6.5-36c-0.3-3.5,0.6-7.3,0.2-10.6c-0.4-3.4-0.1-7.2,0.2-10.8
	c0.2-2.5,0.1-5.2,0.6-7.6c0.4-2.3,1.1-2.3,1.4-3.7c1-4.6,0.7-9.8,1.7-14.1c2.4-10.4,4.1-21.1,8.3-30.8c3.3-7.6,7-16.5,13.5-22
	c4.3-3.6,10.5-5.8,15.3-3.7c4.2,1.8,8.4,8.1,10.5,12.5c3.7,7.8,7.8,17.1,8.4,25.7c0.6,7.6,1.5,14.9,2.1,22.4
	c0.7,8.6-0.1,17.5-0.8,26.5c-0.6,7.8-2,15.8-3.9,23.2c-0.9,3.3-1.7,7-3,10.1C213.6,142.8,212,146.6,211.8,149.6z M208.4,56.1
	c-2.8-3.5-3.2-10-5.1-14.3c-0.5-1.2-2.1-5.7-2.9-6.2c-0.8-0.5-2.5,0.1-3.4-0.2c-1.6-0.6-2.3-1.9-3.5-3.4c-3.6,4.9-7,9.8-9.2,15.2
	c-2.7,6.7-4.7,13.6-6.3,20.2c-2.2,9.3-3.6,18.8-4.4,28.7c-0.8,10.9-2.1,21.8-1.3,32.2c0.5,6.4,1.9,14.1,3.6,20.3
	c2,7.8,6.6,22.1,15.7,11.9c10.3-11.5,13.8-28.8,16.8-42.9c0.6-2.9,0-6.1,0.7-9c0.2-0.9,1.1-1.1,1.3-2.3c0.3-1.6,0.2-3.3,0.4-4.9
	c0.4-6.1,0.5-11.3,0.2-17.3c-0.2-4.5-0.9-9.3-1.4-13.8C209,65.5,208,60.8,208.4,56.1z"/>
<path class="st0" d="M428.4,34.8c-0.2,2.5-2,5.2-2.9,7.5c-1.3,3.4-2.2,7.5-1.9,11.4c0.4,0.4,0.7,0.8,1.1,1.3c-0.1,1.5-0.2,3-0.3,4.5
	c0,0.6,0.5,3.5,0.7,4.4c0.6,3.1,2,6.3,2.9,9.5c1.6,6.3,4.7,12.4,6.7,18.6c2,6.2,3.8,12.7,5.2,18.9c3,13.2,2.2,26.6-1.8,39.5
	c-2,6.4-6.8,12.4-10.1,18.4c-3.5,6.4-6.6,13.7-10.9,19.9c-3,4.4-8.9,11.4-13.3,4.5c-1.9-2.9-0.8-4.5,0.7-7.4
	c2.9-5.6,6.4-10.9,9.6-16.3c8.8-14.7,16.7-27.8,15.8-45.4c-0.3-6.3-1.9-11.8-3.4-17.9c-1.3-5-2.6-10.5-4.5-15.2
	c-1.8-4.5-3.9-9.3-5.5-14c-2-5.6-2.1-11.8-3.4-17.2c-3.4-13.5,2.8-31.7,14.8-40.1c2.3-1.6,3.5-1.5,5.9-2.1c1.4-0.4,4.1-2.2,5.6-2
	c4.1,0.6,7.6,5.2,5.8,9.2c-2,4.4-5.3,2.3-8.5,3C432.8,28.5,430.9,32.4,428.4,34.8z"/>
</svg>
